/* XPM */
static char *result[] = {
/* columns rows colors chars-per-pixel */
"34 50 187 2 ",
"   c #6F5D28",
".  c #7F7224",
"X  c #786732",
"o  c #604B43",
"O  c #60504B",
"+  c #715F41",
"@  c #6E5D53",
"#  c #796C43",
"$  c #7E7045",
"%  c #6B605F",
"&  c #7A6C51",
"*  c #7A705A",
"=  c #746B68",
"-  c #885F01",
";  c #8B6200",
":  c #956904",
">  c #9A6B03",
",  c #946805",
"<  c #A4740B",
"1  c #AC7C0E",
"2  c #A97A17",
"3  c #867926",
"4  c #A57927",
"5  c #AC7D34",
"6  c #887E49",
"7  c #A47F42",
"8  c #867B76",
"9  c #BA850D",
"0  c #B28412",
"q  c #BD8B14",
"w  c #BF9413",
"e  c #B8A91F",
"r  c #B68727",
"t  c #A1992E",
"y  c #AE853C",
"u  c #A69C34",
"i  c #B8AF2D",
"p  c #CB930B",
"a  c #C18A11",
"s  c #CD9414",
"d  c #D19715",
"f  c #D49A16",
"g  c #D99E16",
"h  c #DA9E18",
"j  c #DEAC0B",
"k  c #DCA216",
"l  c #DCA219",
"z  c #D7A718",
"x  c #DFB11D",
"c  c #E0A603",
"v  c #E4B20D",
"b  c #E2A617",
"n  c #E5A916",
"m  c #E2A519",
"M  c #E6AA19",
"N  c #EBAD1A",
"B  c #ECB31B",
"V  c #E6B318",
"C  c #F3B41B",
"Z  c #F7B91B",
"A  c #FBBC1D",
"S  c #CD9A33",
"D  c #D9A728",
"F  c #C4BE35",
"G  c #EBBA25",
"H  c #F2BD26",
"J  c #E6B335",
"K  c #EABD3B",
"L  c #F4BC34",
"P  c #FDC11E",
"I  c #FEC619",
"U  c #CFCB2C",
"Y  c #D7D333",
"T  c #EDC726",
"R  c #FEC521",
"E  c #FECC22",
"W  c #FAC02A",
"Q  c #E4D82C",
"!  c #FFD426",
"~  c #FFDA27",
"^  c #FFDB29",
"/  c #F6D627",
"(  c #F7CA3A",
")  c #F8C83D",
"_  c #E2DE37",
"`  c #FBD334",
"'  c #FAD738",
"]  c #FFE329",
"[  c #FFEC2C",
"{  c #FEF42D",
"}  c #FEFA2E",
"|  c #E9E735",
" . c #F6EA39",
".. c #F3F236",
"X. c #FCF232",
"o. c #FEFE33",
"O. c #F3F239",
"+. c #FEFF3A",
"@. c #FBF43D",
"#. c #8C8052",
"$. c #B18743",
"%. c #A49D4E",
"&. c #AA8954",
"*. c #AE936D",
"=. c #AE9064",
"-. c #B5986A",
";. c #AF9573",
":. c #B99E77",
">. c #BCA075",
",. c #D6A343",
"<. c #DFB550",
"1. c #E7BC46",
"2. c #E5BB56",
"3. c #E5BB54",
"4. c #C8A367",
"5. c #C6A775",
"6. c #E0BF7A",
"7. c #C6C150",
"8. c #DEC65E",
"9. c #F5C544",
"0. c #F4C94B",
"q. c #F9D34C",
"w. c #F4D44F",
"e. c #F4C255",
"r. c #F5C85A",
"t. c #FBD951",
"y. c #FDE147",
"u. c #FBF642",
"i. c #FAEC53",
"p. c #FBEE5C",
"a. c #FAF453",
"s. c #D6D46C",
"d. c #E7C16F",
"f. c #F0C660",
"g. c #F8D664",
"h. c #F3CC7B",
"j. c #F7DA76",
"k. c #F7EA6B",
"l. c #F6EC7D",
"z. c #F9F27B",
"x. c #F7F079",
"c. c #978F85",
"v. c #9B9380",
"b. c #B6AC88",
"n. c #A6A19E",
"m. c #BDB9AC",
"M. c #BFBABA",
"N. c #C6AB87",
"B. c #DDBE83",
"V. c #C7B096",
"C. c #E0C082",
"Z. c #F3CB83",
"A. c #F7D588",
"S. c #E5CB9C",
"D. c #F2D79D",
"F. c #E6D687",
"G. c #E6E487",
"H. c #F4EA87",
"J. c #F2E997",
"K. c #F8F393",
"L. c #DAC4A3",
"P. c #D3C6B7",
"I. c #E5CBA1",
"U. c #EFD6A2",
"Y. c #EDD5AA",
"T. c #F1D7A8",
"R. c #E5D3B4",
"E. c #ECD9BB",
"W. c #F2DEBA",
"Q. c #F4DEB7",
"!. c #F9E5AD",
"~. c #F4EFA1",
"^. c #F4F0AB",
"/. c #F8E5BA",
"(. c #D8D5CB",
"). c #DDDCDB",
"_. c #D8D6D5",
"`. c #EADBC6",
"'. c #E9DDD1",
"]. c #F5E4C3",
"[. c #FAF2C5",
"{. c #EDE8D4",
"}. c #F7E8D3",
"|. c #F9F8D5",
" X c #E9E8E6",
".X c #FEFEFE",
"XX c None",
/* pixels */
"XXXXXXXXXXXXXXXXXXXXXXXXXXXXXXXXXXXXXXXXXXXXXXXXXXXXXXXXXXXXXXXXXXXX",
"XXXXXXXXXXXXXXXXXXXXXXXXXXXXXXXXXXXXXXXXXXXXXXXXXXXXXXXXXXXXXXXXXXXX",
"XXXXXXXXXXXXXXXXXXXXXXXXXXXXXXXXXXXXXXXXXXXXXXXXXXXXXXXXXXXXXXXXXXXX",
"XXXXXXXXXXXXXXXXXXXXXXXXXXXXXXXXXXXXXXXXXXXXXXXXXXXXXXXXXXXXXXXXXXXX",
"XXXXXXXXXXXXXXXXXXXXXXXXXXXXXXXXXXXXXXXXXXXXXXXXXXXXXXXXXXXXXXXXXXXX",
"XXXXXXXXXXXXXXXXXXXXXXXXXXXXXX[./.!.!./.XXXXXXXXXXXXXXXXXXXXXXXXXXXX",
"XXXXXXXXXXXXXXXXXXXXXXXX|.K.p.i. .t.' t.q.A.[.XXXXXXXXXXXXXXXXXXXXXX",
"XXXXXXXXXXXXXXXXXXXXXXG.u.o.X.[ [ ] ] ~ ] ^ ` j.XXXXXXXXXXXXXXXXXXXX",
"XXXXXXXXXXXXXXXXXXm.s.o.o.} { { [ ] ] ^ ^ ! ^ ^ g.XXXXXXXXXXXXXXXXXX",
"XXXXXXXXXXXXXXXXM.7.o.o.o.} { { [ ] ] ^ ^ ^ ^ ` ^ g.XXXXXXXXXXXXXXXX",
"XXXXXXXXXXXXXX).%.| o.o.o.} { { [ ] ] ~ ^ ! ! ! ! ! A.XXXXXXXXXXXXXX",
"XXXXXXXXXXXXXXv.U +.+.o.o.o.} X. ./ T / ^ ^ ! ! ! E ) XXXXXXXXXXXXXX",
"XXXXXXXXXXXXXX3 O.+.+.o.o.o.o.l.F.N.$.w T ! E E ! E E U.XXXXXXXXXXXX",
"XXXXXXXXXXXXc.i +.o.+.o.o.} a.XXXXXXV.5 0 / E E E P A 9.XXXXXXXXXXXX",
"XXXXXXXXXXXX+ | +.+.+.o.o.o.k.XXXXXXXX$.< z E R P P H 9.E.XXXXXXXXXX",
"XXXXXXXXXXXXX @.+.+.o.o.o.@.^.XXXXXXXX>.2 q E R E P C H U.XXXXXXXXXX",
"XXXXXXXXXXn.u +.+.+.+.o.o.u.{.XXXXXXXXP.4 1 H R P A B N f.XXXXXXXXXX",
".XXXXXXXXX@ U +.+.+.o.o.o.a.XXXXXXXXXXXX4 2 B P R Z N N h.XXXXXXXXXX",
"XXXXXXXXXX8 Y u.+.+.o.o.} k.XXXXXXXXXXXX7 < N H A A N M 9.}.XXXXXXXX",
"XXXXXXXXXXO | u.+.o.o.o.o.z.XXXXXXXXXXXX&.> M A A A N N r.].XXXXXXXX",
"XXXXXXXXXX@ O.+.+.+.o.o.} K.XXXXXXXXXXXX-., l A P Z n B ( /.XXXXXXXX",
".XXXXXXX).  O.+.+.o.o.o.} x.XXXXXXXXXXXX:.> m H A Z N C ( E.XXXXXXXX",
"XXXXXXXXXX#.O.+.+.+.o.o.} J.XXXXXXXXXXXX-.> h Z Z C N N G W.XXXXXXXX",
"XXXXXXXX_.. O.+.o.o.o.o.} H.XXXXXXXXXXXX:., h C Z Z C N V U.XXXXXXXX",
"XXXXXXXXXX6 O.o.o.o.o.o.{ J.XXXXXXXXXXXX;.- f C Z A C b v T.XXXXXXXX",
".XXXXXXX).. O.+.o.o.o.o.} H.XXXXXXXXXXXX;.; f C Z I b k V U.XXXXXXXX",
"XXXXXXXXXX6 O.o.o.o.} o.} J.XXXXXXXXXXXX;., h C Z C g k G /.XXXXXXXX",
"XXXXXXXX_.$ O.o.o.o.o.} { l.XXXXXXXXXXXX*.: f N C C k f K ].XXXXXXXX",
"XXXXXXXXXX& O.o.o.o.o.} [ J.XXXXXXXXXXXX=.> f N C B g d J XXXXXXXXXX",
"XXXXXXXX XO | o.o.} } } { k.XXXXXXXXXXXX&.< g n N M d s <.'.XXXXXXXX",
"XXXXXXXXXX= | o.o.} } { [ j.XXXXXXXXXXXXy < d m n k s s 2.'.XXXXXXXX",
"XXXXXXXXXX% Y } o.{ { [ [ g.XXXXXXXXXXXXr 1 f m b g s s d.XXXXXXXXXX",
"XXXXXXXXXXn.U o.o.{ { [ ] w.XXXXXXXXXXP.r 9 g h k g s s 2.XXXXXXXXXX",
"XXXXXXXXXXXXt O.{ [ [ ] ] ` XXXXXXXXXX5.q 9 g h h f s D S.XXXXXXXXXX",
"XXXXXXXXXXXX# X.{ [ [ ] ~ ` D.XXXXXXXX4.a a h g g k d K R.XXXXXXXXXX",
"XXXXXXXXXXXX* Q { [ ] ^ ~ ! h.XXXXXXI.S q s g d k f s 1.XXXXXXXXXXXX",
"XXXXXXXXXXXXXXe { ] ~ ~ ~ E 9.Y.XXI.,.p a g f d d s z C.XXXXXXXXXXXX",
"XXXXXXXXXXXXXXb./ ] ~ ! ! E P L J c k d g g d d s s x XXXXXXXXXXXXXX",
"XXXXXXXXXXXXXX(.8.~ ~ ! E E P P C N m m h d d d p j B.XXXXXXXXXXXXXX",
"XXXXXXXXXXXXXXXXR.q.~ E E R R Z C N m l f f d s k 3.XXXXXXXXXXXXXXXX",
"XXXXXXXXXXXXXXXXXX!.q.I E P A Z C n b g g f s d 1.R.XXXXXXXXXXXXXXXX",
"XXXXXXXXXXXXXXXXXXXX/.r.I P A A C N n n n n v 3.E.XXXXXXXXXXXXXXXXXX",
"XXXXXXXXXXXXXXXXXXXXXX}.h.L R P P A A P R T 6.{.XXXXXXXXXXXXXXXXXXXX",
"XXXXXXXXXXXXXXXXXXXXXXXXXXXXZ.r.e.9.e.3.I.XXXXXXXXXXXXXXXXXXXXXXXXXX",
"XXXXXXXXXXXXXXXXXXXXXXXXXXXXXXXXXXXXXXXXXXXXXXXXXXXXXXXXXXXXXXXXXXXX",
"XXXXXXXXXXXXXXXXXXXXXXXXXXXXXXXXXXXXXXXXXXXXXXXXXXXXXXXXXXXXXXXXXXXX",
"XXXXXXXXXXXXXXXXXXXXXXXXXXXXXXXXXXXXXXXXXXXXXXXXXXXXXXXXXXXXXXXXXXXX",
"XXXXXXXXXXXXXXXXXXXXXXXXXXXXXXXXXXXXXXXXXXXXXXXXXXXXXXXXXXXXXXXXXXXX",
"XXXXXXXXXXXXXXXXXXXXXXXXXXXXXXXXXXXXXXXXXXXXXXXXXXXXXXXXXXXXXXXXXXXX",
"XXXXXXXXXXXXXXXXXXXXXXXXXXXXXXXXXXXXXXXXXXXXXXXXXXXXXXXXXXXXXXXXXXXX"
};
