/* XPM */
static char *result[] = {
/* columns rows colors chars-per-pixel */
"32 50 128 2 ",
"   c #472D05",
".  c #482D05",
"X  c #472E0B",
"o  c #493112",
"O  c #4D361D",
"+  c #543F2B",
"@  c #65450A",
"#  c #6C4A0B",
"$  c #724F0D",
"%  c #73510E",
"&  c #78570F",
"*  c #7A590F",
"=  c #64461A",
"-  c #68491A",
";  c #765310",
":  c #7A5610",
">  c #7C5B11",
",  c #58412B",
"<  c #574331",
"1  c #594735",
"2  c #5B4938",
"3  c #6D4F24",
"4  c #76592E",
"5  c #634B32",
"6  c #634E3B",
"7  c #7D5F32",
"8  c #836513",
"9  c #8C6B15",
"0  c #967215",
"q  c #80602C",
"w  c #A68217",
"e  c #B69018",
"r  c #AA8F20",
"t  c #A38A2F",
"y  c #AB9426",
"u  c #A79D27",
"i  c #A89F22",
"p  c #A89E32",
"a  c #A9A022",
"s  c #BAAF2A",
"d  c #D59B0F",
"f  c #C88F12",
"g  c #CF9613",
"h  c #D19715",
"j  c #D49A16",
"k  c #DA9E15",
"l  c #DB9F18",
"z  c #DDA115",
"x  c #DFA218",
"c  c #E0A30E",
"v  c #E1A515",
"b  c #E5AA15",
"n  c #E8AD16",
"m  c #E2A518",
"M  c #E5A91A",
"N  c #EBAC1A",
"B  c #ECB217",
"V  c #EEB11A",
"C  c #F5BD17",
"Z  c #F4B41C",
"A  c #F8B71D",
"S  c #F5BC18",
"D  c #FBBB1E",
"F  c #D29B39",
"G  c #C3A523",
"H  c #DCA72F",
"J  c #C4B12A",
"K  c #D6B625",
"L  c #DAA537",
"P  c #DFA93C",
"I  c #E4AC32",
"U  c #E3AD3B",
"Y  c #FDC21D",
"T  c #FDCB1D",
"R  c #FCD11E",
"E  c #DFCF28",
"W  c #CBC739",
"Q  c #E5C224",
"!  c #ECC327",
"~  c #F7C421",
"^  c #FEC420",
"/  c #F7CA23",
"(  c #FFCB22",
")  c #FED425",
"_  c #FEDA26",
"`  c #F0D529",
"'  c #FAD629",
"]  c #F5DD29",
"[  c #FEDB29",
"{  c #E1DE31",
"}  c #EFE92E",
"|  c #FEE42A",
" . c #FEEC2C",
".. c #FFF42F",
"X. c #FFFA2F",
"o. c #F4E337",
"O. c #F9E431",
"+. c #F5F536",
"@. c #FBF433",
"#. c #FDFD33",
"$. c #F7F639",
"%. c #F9F53C",
"&. c #D19D44",
"*. c #DEA942",
"=. c #D5A24E",
"-. c #DCA848",
";. c #D0A155",
":. c #DBAB5C",
">. c #E8B650",
",. c #ECBB55",
"<. c #EDBE5B",
"1. c #D5AA6C",
"2. c #F4CE44",
"3. c #F5CA4C",
"4. c #F6DB4B",
"5. c #EECD51",
"6. c #F4C456",
"7. c #F7CB51",
"8. c #F6C95C",
"9. c #F8CB58",
"0. c #F9DB5E",
"q. c #F6EA48",
"w. c #F8F348",
"e. c #F4ED5D",
"r. c #F6F157",
"t. c #D6C463",
"y. c #F1ED68",
"u. c None",
/* pixels */
"u.u.u.u.u.u.u.u.u.u.u.u.u.u.u.u.u.u.u.u.u.u.u.u.u.u.u.u.u.u.u.u.",
"u.u.u.u.u.u.u.u.u.u.u.u.u.u.u.u.u.u.u.u.u.u.u.u.u.u.u.u.u.u.u.u.",
"u.u.u.u.u.u.u.u.u.u.u.u.u.u.u.u.u.u.u.u.u.u.u.u.u.u.u.u.u.u.u.u.",
"u.u.u.u.u.u.u.u.u.u.u.u.u.u.u.u.u.u.u.u.u.u.u.u.u.u.u.u.u.u.u.u.",
"u.u.u.u.u.u.u.u.u.u.u.u.u.u.u.u.u.u.u.u.u.u.u.u.u.u.u.u.u.u.u.u.",
"u.u.u.u.u.u.u.u.u.u.u.u.u.u.u.u.u.u.! 2.0.0.4.u.u.u.u.u.u.u.u.u.",
"u.u.u.u.u.u.u.u.u.u.u.u.u.u.u.u.4 e ' [ ' ] O.5.u.u.u.u.u.u.u.u.",
"u.u.u.u.u.u.u.u.u.u.u.u.u.u.u.u.> Q [ [ [ |  .3.u.u.u.u.u.u.u.u.",
"u.u.u.u.u.u.u.u.u.u.u.u.u.u.u.= G [ [ _ [ [ | 3.u.u.u.u.u.u.u.u.",
"u.u.u.u.u.u.u.u.u.u.u.u.u.u.3 r ' [ _ _ ) ) | 3.u.u.u.u.u.u.u.u.",
"u.u.u.u.u.u.u.u.u.u.u.u.u.u.y ` [ [ [ _ ) _ _ 3.u.u.u.u.u.u.u.u.",
"u.u.u.u.u.u.u.u.u.u.u.u.7 J O.| | [ [ [ ) ) _ 7.u.u.u.u.u.u.u.u.",
"u.u.u.u.u.u.u.u.u.u.u.t E  . .| [ _ ) ) ) ( ) 3.u.u.u.u.u.u.u.u.",
"u.u.u.u.u.u.u.u.u.u.s } .... .| | _ ) ) ) ( ) 9.u.u.u.u.u.u.u.u.",
"u.u.u.u.u.u.u.u.W { #.#.X... .| | [ ) ( ( ^ ) 8.u.u.u.u.u.u.u.u.",
"u.u.u.u.u.u.6 u +.#.#.#..... . .' [ ) ( ( ^ T 8.u.u.u.u.u.u.u.u.",
"u.u.u.u.u.u.6 a #.#.#.X..... .O.K _ ) ^ ^ ^ R 7.u.u.u.u.u.u.u.u.",
"u.u.u.u.u.u.6 i #.#.#.X.X...o.G w ) ) ( ^ ^ R 8.u.u.u.u.u.u.u.u.",
"u.u.u.u.u.u.6 a $.#.#.X.@.q.t.7 0 ) ) ^ Y ^ T 6.u.u.u.u.u.u.u.u.",
"u.u.u.u.u.u., a #.#.#.w.e.u.u.5 9 ) ( ( T Y T 6.u.u.u.u.u.u.u.u.",
"u.u.u.u.u.u.6 a $.%.r.u.u.u.u.1 8 ) ( ( T Y T 6.u.u.u.u.u.u.u.u.",
"u.u.u.u.u.u.u.p y.u.u.u.u.u.u.< > / ( ( ^ D Y 6.u.u.u.u.u.u.u.u.",
"u.u.u.u.u.u.u.u.u.u.u.u.u.u.u.1 > / ( Y D A Y 6.u.u.u.u.u.u.u.u.",
"u.u.u.u.u.u.u.u.u.u.u.u.u.u.u.1 > / ( Y D A Y ,.u.u.u.u.u.u.u.u.",
"u.u.u.u.u.u.u.u.u.u.u.u.u.u.u.1 > ~ ^ ^ D Z S ,.u.u.u.u.u.u.u.u.",
"u.u.u.u.u.u.u.u.u.u.u.u.u.u.u.2 * ~ ^ ^ D Z S <.u.u.u.u.u.u.u.u.",
"u.u.u.u.u.u.u.u.u.u.u.u.u.u.u.2 * ~ ^ D A Z S >.u.u.u.u.u.u.u.u.",
"u.u.u.u.u.u.u.u.u.u.u.u.u.u.u.2 > D D D Z N S U u.u.u.u.u.u.u.u.",
"u.u.u.u.u.u.u.u.u.u.u.u.u.u.u.+ > ~ D A V N V I u.u.u.u.u.u.u.u.",
"u.u.u.u.u.u.u.u.u.u.u.u.u.u.u.< > D D Z N M V I u.u.u.u.u.u.u.u.",
"u.u.u.u.u.u.u.u.u.u.u.u.u.u.u.O : D D Z M M B I u.u.u.u.u.u.u.u.",
"u.u.u.u.u.u.u.u.u.u.u.u.u.u.u.O : D Z N M m n U u.u.u.u.u.u.u.u.",
"u.u.u.u.u.u.u.u.u.u.u.u.u.u.u.o ; Z Z M M l b U u.u.u.u.u.u.u.u.",
"u.u.u.u.u.u.u.u.u.u.u.u.u.u.u.X ; N N M x l v *.u.u.u.u.u.u.u.u.",
"u.u.u.u.u.u.u.u.u.u.u.u.u.u.u.  $ N N m l k x *.u.u.u.u.u.u.u.u.",
"u.u.u.u.u.u.u.u.u.u.u.u.u.u.u.. $ M M x k j k :.u.u.u.u.u.u.u.u.",
"u.u.u.u.u.u.u.u.u.u.u.u.u.u.u.. $ x m l j j z :.u.u.u.u.u.u.u.u.",
"u.u.u.u.u.u.u.u.u.u.u.u.u.u.u.  # l x k j g d :.u.u.u.u.u.u.u.u.",
"u.u.u.u.u.u.u.u.u.u.u.u.u.u.u.  # j l j g g k =.u.u.u.u.u.u.u.u.",
"u.u.u.u.u.u.u.u.u.u.u.u.u.u.u.  # h l j j h d &.u.u.u.u.u.u.u.u.",
"u.u.u.u.u.u.u.u.u.u.u.u.u.u.u.  @ h z j h f k ;.u.u.u.u.u.u.u.u.",
"u.u.u.u.u.u.u.u.u.u.u.u.u.u.u.o @ h x z h g c F u.u.u.u.u.u.u.u.",
"u.u.u.u.u.u.u.u.u.u.u.u.u.u.u.u.- j B M H L P 1.u.u.u.u.u.u.u.u.",
"u.u.u.u.u.u.u.u.u.u.u.u.u.u.u.u.u.u.u.u.u.u.u.u.u.u.u.u.u.u.u.u.",
"u.u.u.u.u.u.u.u.u.u.u.u.u.u.u.u.u.u.u.u.u.u.u.u.u.u.u.u.u.u.u.u.",
"u.u.u.u.u.u.u.u.u.u.u.u.u.u.u.u.u.u.u.u.u.u.u.u.u.u.u.u.u.u.u.u.",
"u.u.u.u.u.u.u.u.u.u.u.u.u.u.u.u.u.u.u.u.u.u.u.u.u.u.u.u.u.u.u.u.",
"u.u.u.u.u.u.u.u.u.u.u.u.u.u.u.u.u.u.u.u.u.u.u.u.u.u.u.u.u.u.u.u.",
"u.u.u.u.u.u.u.u.u.u.u.u.u.u.u.u.u.u.u.u.u.u.u.u.u.u.u.u.u.u.u.u.",
"u.u.u.u.u.u.u.u.u.u.u.u.u.u.u.u.u.u.u.u.u.u.u.u.u.u.u.u.u.u.u.u."
};
