/* XPM */
static char *result[] = {
/* columns rows colors chars-per-pixel */
"34 50 163 2 ",
"   c #4F3205",
".  c #573706",
"X  c #5B3A07",
"o  c #563609",
"O  c #56390D",
"+  c #5B3A08",
"@  c #543B1C",
"#  c #603E07",
"$  c #523C23",
"%  c #5B410C",
"&  c #5D4019",
"*  c #6C490B",
"=  c #775308",
"-  c #7B5309",
";  c #6C5715",
":  c #5A4227",
">  c #584229",
",  c #574531",
"<  c #5B4935",
"1  c #614A2D",
"2  c #644A26",
"3  c #75582F",
"4  c #634C34",
"5  c #705532",
"6  c #776755",
"7  c #835A0A",
"8  c #8C630A",
"9  c #996E0C",
"0  c #836A13",
"q  c #8B7B1F",
"w  c #9B7C16",
"e  c #A4710F",
"r  c #A9760E",
"t  c #AB790F",
"y  c #AA7510",
"u  c #AD7810",
"i  c #AF7D18",
"p  c #A37616",
"a  c #B27D11",
"s  c #805E2A",
"d  c #8F6A26",
"f  c #8E6B2D",
"g  c #8A6834",
"h  c #9C7538",
"j  c #8F7041",
"k  c #987847",
"l  c #9C831A",
"z  c #B7820E",
"x  c #BA860F",
"c  c #BF880F",
"v  c #B78011",
"b  c #BB8512",
"n  c #B8891A",
"m  c #AC961E",
"M  c #B6901A",
"N  c #94882A",
"B  c #B0802F",
"V  c #B9882C",
"C  c #B5883A",
"Z  c #BF903D",
"A  c #B7A121",
"S  c #B8B63B",
"D  c #C38B0F",
"F  c #CB910E",
"G  c #D0950E",
"H  c #C48D12",
"J  c #CC9314",
"K  c #D09615",
"L  c #D49A15",
"P  c #D99E16",
"I  c #DB9F18",
"U  c #CDA41D",
"Y  c #DCA115",
"T  c #DDA319",
"R  c #D7A71E",
"E  c #E1A416",
"W  c #E4A917",
"Q  c #E3A619",
"!  c #E6A91A",
"~  c #EBAD1A",
"^  c #EDB31A",
"/  c #F3B41B",
"(  c #F4BC1A",
")  c #FCBB1E",
"_  c #C69227",
"`  c #CE9A3B",
"'  c #C5A620",
"]  c #CBA421",
"[  c #C2A822",
"{  c #C8AA21",
"}  c #D9A12B",
"|  c #C5BE2F",
" . c #CBB626",
".. c #D8BE26",
"X. c #C3BD31",
"o. c #DAB936",
"O. c #E0AC27",
"+. c #F4BB20",
"@. c #FDBE20",
"#. c #F8BF2B",
"$. c #F2BD3D",
"%. c #F4C017",
"&. c #F5C11D",
"*. c #FEC21E",
"=. c #FCCA1F",
"-. c #CDC93C",
";. c #EBCC24",
":. c #FFC421",
">. c #F7CD24",
",. c #FECC22",
"<. c #F3C02E",
"1. c #E6D02B",
"2. c #EBD62A",
"3. c #FED324",
"4. c #FFDB27",
"5. c #FAD42B",
"6. c #FEDC29",
"7. c #F2C631",
"8. c #F7C43F",
"9. c #F8D330",
"0. c #FEE32A",
"q. c #FFEB2C",
"w. c #FFF42E",
"e. c #FEFA2F",
"r. c #E5E139",
"t. c #E8E53E",
"y. c #FCF631",
"u. c #FEFE34",
"i. c #FEFE3B",
"p. c #FAF03C",
"a. c #BC9048",
"s. c #CCA24C",
"d. c #DEAA4C",
"f. c #CDA55F",
"g. c #CEA153",
"h. c #EFBB4A",
"j. c #E4B149",
"k. c #F1BD46",
"l. c #F3BF48",
"z. c #E6B559",
"x. c #CFA662",
"c. c #CAA66D",
"v. c #E8B760",
"b. c #E9BC65",
"n. c #CFCA48",
"m. c #D6D042",
"M. c #F3C546",
"N. c #F6CD41",
"B. c #F1C14B",
"V. c #F5CF4D",
"C. c #F4D147",
"Z. c #F5D04D",
"A. c #F4CE59",
"S. c #F4CD56",
"D. c #FAE946",
"F. c #F8F740",
"G. c #FAFA4C",
"H. c #F9EF51",
"J. c #F8EF5D",
"K. c #F8C869",
"L. c #F5D069",
"P. c #F2C777",
"I. c None",
/* pixels */
"I.I.I.I.I.I.I.I.I.I.I.I.I.I.I.I.I.I.I.I.I.I.I.I.I.I.I.I.I.I.I.I.I.I.",
"I.I.I.I.I.I.I.I.I.I.I.I.I.I.I.I.I.I.I.I.I.I.I.I.I.I.I.I.I.I.I.I.I.I.",
"I.I.I.I.I.I.I.I.I.I.I.I.I.I.I.I.I.I.I.I.I.I.I.I.I.I.I.I.I.I.I.I.I.I.",
"I.I.I.I.I.I.I.I.I.I.I.I.I.I.I.I.I.I.I.I.I.I.I.I.I.I.I.I.I.I.I.I.I.I.",
"I.I.I.I.I.I.I.I.I.I.I.I.I.I.I.I.I.I.I.I.I.I.I.I.I.I.I.I.I.I.I.I.I.I.",
"I.I.I.I.I.I.I.I.I.I.I.I.I.I.I.I.I.I.I.I.I.I.I.I.I.I.I.I.I.I.I.I.I.I.",
"I.I.I.I.I.I.I.I.I.I.I.I.I.J.D.0.0.4.4.5.5.Z.L.I.I.I.I.I.I.I.I.I.I.I.",
"I.I.I.I.I.I.I.I.I.I.I.G.u.w.w.q.0.0.6.6.6.6.6.9.A.I.I.I.I.I.I.I.I.I.",
"I.I.I.I.I.I.I.I.I.m.u.u.e.e.w.q.0.0.6.4.5.6.6.6.6.N.I.I.I.I.I.I.I.I.",
"I.I.I.I.I.I.I.I.-.y.u.u.u.e.w.q.q.0.0.4.6.6.6.6.6.6.8.I.I.I.I.I.I.I.",
"I.I.I.I.I.I.I.N i.i.u.u.e.e.w.w.q.0.4.6.4.5.5.3.5.,.,.h.I.I.I.I.I.I.",
"I.I.I.I.I.I.4 r.i.u.u.u.u.u.e.q.0.;.;.5.4.4.3.3.3.:.:.:.I.I.I.I.I.I.",
"I.I.I.I.I.I.q i.i.u.u.u.u.u.p.I.I.I.h 8 M >.3.,.,.@.+.:.B.I.I.I.I.I.",
"I.I.I.I.I.: | i.i.u.u.u.u.y.I.I.I.I.I.k 8 p :.,.:.@.+./ ( I.I.I.I.I.",
"I.I.I.I.I.4 r.i.i.i.u.u.u.H.I.I.I.I.I.I.d - ] ,.:.:.^ ^ ( I.I.I.I.I.",
"I.I.I.I.I.o p.i.i.u.u.u.e.I.I.I.I.I.I.I.k 7 n :.:.) ~ ~ %.I.I.I.I.I.",
"I.I.I.I.I.; F.F.u.i.u.u.y.I.I.I.I.I.I.I.I.- 9 :.*.) ~ ! ( I.I.I.I.I.",
"I.I.I.I.I.I.I.I.I.S n.-.t.I.I.I.I.I.I.I.I.= p *.) ) ! W ( I.I.I.I.I.",
"I.I.I.I.I.I.I.I.I.I.I.I.I.I.I.I.I.I.I.I.j = n :.*./ ! ! %.I.I.I.I.I.",
"I.I.I.I.I.I.I.I.I.I.I.I.I.I.I.I.I.I.I.I.g - ~ *.) / Q ~ ( I.I.I.I.I.",
"I.I.I.I.I.I.I.I.I.I.I.I.I.I.I.I.I.I.I.I.7 p *.*.) ~ W ^ B.I.I.I.I.I.",
"I.I.I.I.I.I.I.I.I.I.I.I.I.I.I.I.I.I.I.f 7 ^ @.) ) ~ ~ ( I.I.I.I.I.I.",
"I.I.I.I.I.I.I.I.I.I.I.I.I.I.I.I.I.I.g 7 } *.*.) ) ^ / $.I.I.I.I.I.I.",
"I.I.I.I.I.I.I.I.I.I.I.I.I.I.I.I.I.g - U ,.*.) / ( ( %.I.I.I.I.I.I.I.",
"I.I.I.I.I.I.I.I.I.I.I.I.I.I.I.I.3 - ] ,.:.@.) / ) ) h.I.I.I.I.I.I.I.",
"I.I.I.I.I.I.I.I.I.I.I.I.I.I.I.5 = U ,.,.:.:./ / *.<.I.I.I.I.I.I.I.I.",
"I.I.I.I.I.I.I.I.I.I.I.I.I.I.2 * ] 3.,.:.:.) / / ( I.I.I.I.I.I.I.I.I.",
"I.I.I.I.I.I.I.I.I.I.I.I.I.& + { 5.3.,.:.@.) / / I.I.I.I.I.I.I.I.I.I.",
"I.I.I.I.I.I.I.I.I.I.I.I.1 + [ 6.3.3.,.:.) / ^ v.I.I.I.I.I.I.I.I.I.I.",
"I.I.I.I.I.I.I.I.I.I.I.1 X [ 0.4.3.,.:.) ) / z.I.I.I.I.I.I.I.I.I.I.I.",
"I.I.I.I.I.I.I.I.I.I.: X A 0.4.3.,.,.:.@.) j.I.I.I.I.I.I.I.I.I.I.I.I.",
"I.I.I.I.I.I.I.I.I.6 X m 0.4.4.3.,.,.:.&.b.I.I.I.I.I.I.I.I.I.I.I.I.I.",
"I.I.I.I.I.I.I.I.I.. l 0.0.4.3.,.,.,.=.h.I.I.I.I.I.I.I.I.I.I.I.I.I.I.",
"I.I.I.I.I.I.I.I.O 0 0.0.4.4.3.3.=.3.B.I.I.I.I.I.I.I.I.I.I.I.I.I.I.I.",
"I.I.I.I.I.I.I.@ * 2.q.0.4.3.3.,.3.M.I.I.I.I.I.I.I.I.I.I.I.I.I.I.I.I.",
"I.I.I.I.I.I.> X  .q.0.4.3.3.3.3.7.g._ ` c.a.i B C a.V g.I.I.I.I.I.I.",
"I.I.I.I.I.I.o l q.0.4.6.3.,.=.>.Q I I K J J J J J J b b H I.I.I.I.I.",
"I.I.I.I.I.: X 1.0.0.4.3.3.=.*.) +./ ! Q T L J J J b u r H I.I.I.I.I.",
"I.I.I.I.I.@ w 0.4.4.3.3.,.,.:.) / ~ Q E I L K K J z y r c I.I.I.I.I.",
"I.I.I.I.I.  1.5.4.4.3.,.=.:.@./ / ! E I L L L J J a e r D I.I.I.I.I.",
"I.I.I.I., % 6.4.3.3.3.=.*.*.) / ^ W E P P L J H J a t x F I.I.I.I.I.",
"I.I.I.I.< l 4.4.3.,.,.*.:.) ) ) / ~ Q Q Y Y K L Y D x D G I.I.I.I.I.",
"I.I.I.I.$ { 4.4.3.3.=.*.*.*.) ( ( ( ^ / ^ O.R d.} ` x._ f.I.I.I.I.I.",
"I.I.I.I.I.o.C.Z.S.M.l.#.$.K.P.I.I.I.I.I.I.I.I.I.I.I.I.I.I.I.I.I.I.I.",
"I.I.I.I.I.I.I.I.I.I.I.I.I.I.I.I.I.I.I.I.I.I.I.I.I.I.I.I.I.I.I.I.I.I.",
"I.I.I.I.I.I.I.I.I.I.I.I.I.I.I.I.I.I.I.I.I.I.I.I.I.I.I.I.I.I.I.I.I.I.",
"I.I.I.I.I.I.I.I.I.I.I.I.I.I.I.I.I.I.I.I.I.I.I.I.I.I.I.I.I.I.I.I.I.I.",
"I.I.I.I.I.I.I.I.I.I.I.I.I.I.I.I.I.I.I.I.I.I.I.I.I.I.I.I.I.I.I.I.I.I.",
"I.I.I.I.I.I.I.I.I.I.I.I.I.I.I.I.I.I.I.I.I.I.I.I.I.I.I.I.I.I.I.I.I.I.",
"I.I.I.I.I.I.I.I.I.I.I.I.I.I.I.I.I.I.I.I.I.I.I.I.I.I.I.I.I.I.I.I.I.I."
};
