/* XPM */
static char *result[] = {
/* columns rows colors chars-per-pixel */
"29 50 175 2 ",
"   c #4E3106",
".  c #533506",
"X  c #51391C",
"o  c #583D18",
"O  c #593B14",
"+  c #4E3D29",
"@  c #68481E",
"#  c #755D14",
"$  c #7C6B1B",
"%  c #5B452C",
"&  c #5E4B34",
"*  c #644C26",
"=  c #6A5129",
"-  c #6C5A2E",
";  c #6F5E34",
":  c #68533E",
">  c #875F07",
",  c #895E08",
"<  c #8C6209",
"1  c #906709",
"2  c #996709",
"3  c #966A08",
"4  c #9B6D09",
"5  c #9E7013",
"6  c #A4750D",
"7  c #A9780B",
"8  c #A47B15",
"9  c #AD7D10",
"0  c #B07E10",
"q  c #9A722D",
"w  c #977335",
"e  c #967835",
"r  c #937442",
"t  c #A47E49",
"y  c #9C8F1E",
"u  c #B4820D",
"i  c #BD8811",
"p  c #B98E19",
"a  c #9F8C2C",
"s  c #9F9520",
"d  c #8F843C",
"f  c #978F36",
"g  c #AE822B",
"h  c #B48A26",
"j  c #BA8C32",
"k  c #AEA328",
"l  c #B9AB22",
"z  c #BBB429",
"x  c #BAB337",
"c  c #C68F12",
"v  c #C59015",
"b  c #CA9512",
"n  c #CC9518",
"m  c #D69B16",
"M  c #D99E17",
"N  c #CDAB1E",
"B  c #DCA116",
"V  c #DDA51B",
"C  c #DBB11F",
"Z  c #E1A616",
"A  c #E6A916",
"S  c #EAAD16",
"D  c #E2A618",
"F  c #E5A918",
"G  c #EAAD19",
"H  c #EEB116",
"J  c #E6B71F",
"K  c #EEB11A",
"L  c #F0B015",
"P  c #F7BD17",
"I  c #F9BC16",
"U  c #F3B51A",
"Y  c #F5BC1D",
"T  c #FABB1B",
"R  c #D29E3E",
"E  c #DBAF29",
"W  c #DEA32A",
"Q  c #CFBD23",
"!  c #D5AB39",
"~  c #E1A72C",
"^  c #EAAB25",
"/  c #E5B227",
"(  c #E0A73D",
")  c #F3BE35",
"_  c #EFC31B",
"`  c #F7C117",
"'  c #FCC415",
"]  c #F6CF17",
"[  c #FCCD14",
"{  c #F6C41A",
"}  c #FEC31C",
"|  c #FECB1E",
" . c #FBD416",
".. c #FDDD16",
"X. c #FDD41C",
"o. c #FDDD1B",
"O. c #FEE219",
"+. c #FCEA1C",
"@. c #FDF31D",
"#. c #DCCB2B",
"$. c #D6C123",
"%. c #CECC36",
"&. c #DDD836",
"*. c #E6C226",
"=. c #E2CD28",
"-. c #EAC522",
";. c #FECC21",
":. c #F6C928",
">. c #E9D029",
",. c #E9D62A",
"<. c #FED423",
"1. c #FEDB25",
"2. c #F8D62A",
"3. c #F4DC2A",
"4. c #FFDE29",
"5. c #F5D125",
"6. c #E4C036",
"7. c #E6CC3C",
"8. c #F4C331",
"9. c #F0C03E",
"0. c #FBC933",
"q. c #FDE325",
"w. c #FDEC22",
"e. c #F7E42A",
"r. c #FEE529",
"t. c #FEEC2C",
"y. c #F6EB2E",
"u. c #FEF524",
"i. c #FEFA22",
"p. c #FFF32D",
"a. c #FEF92F",
"s. c #E7E539",
"d. c #ECE935",
"f. c #F7EB36",
"g. c #FEF330",
"h. c #FEFE34",
"j. c #F8F63E",
"k. c #FEFE3A",
"l. c #F6F43C",
"z. c #A68243",
"x. c #A38454",
"c. c #B4A15D",
"v. c #AF9567",
"b. c #AD966D",
"n. c #CE9E52",
"m. c #C9A744",
"M. c #D2A947",
"N. c #D6A34F",
"B. c #DAB146",
"V. c #CDA157",
"C. c #E0B741",
"Z. c #EAB54C",
"A. c #F1B646",
"S. c #F0BF5D",
"D. c #D4A863",
"F. c #DAD34F",
"G. c #E9C04D",
"H. c #EAC144",
"J. c #F1CB42",
"K. c #F2CA49",
"L. c #F7C64B",
"P. c #ECD04C",
"I. c #F0CF54",
"U. c #F6C85B",
"Y. c #F8D950",
"T. c #F3D258",
"R. c #FAE750",
"E. c #F7E85D",
"W. c #FAEB55",
"Q. c #F5F154",
"!. c #ECC766",
"~. c #F9D965",
"^. c #EEE56B",
"/. c #FAE771",
"(. c None",
/* pixels */
"(.(.(.(.(.(.(.(.(.(.(.(.(.(.(.(.(.(.(.(.(.(.(.(.(.(.(.(.(.",
"(.(.(.(.(.(.(.(.(.(.(.(.(.(.(.(.(.(.(.(.(.(.(.(.(.(.(.(.(.",
"(.(.(.(.(.(.(.(.(.(.(.(.(.(.(.(.(.(.(.(.(.(.(.(.(.(.(.(.(.",
"(.(.(.(.(.(.(.(.(.(.(.(.(.(.(.(.(.(.(.(.(.(.(.(.(.(.(.(.(.",
"(.(.(.(.(.(.(.(.(.(.(.(.(.(.(.(.(.(.(.(.(.(.(.(.(.(.(.(.(.",
"(.(.(.(.(.(.(.(.(.(.(./.P.I.~.(.(.(.(.(.(.(.(.(.(.(.(.(.(.",
"(.(.(.(.(.(.(.(.W.f.e.e.r.e.e.2.5.U.(.(.(.(.(.(.(.(.(.(.(.",
"(.(.(.(.(.(.Q.h.h.a.a.t.t.t.t.g.g.h.1.L.(.(.(.(.(.(.(.(.(.",
"(.(.(.(.d d.h.a.h.a.a.p.t.t.t.t.g.h.h.t.0.(.(.(.(.(.(.(.(.",
"(.(.(.* d.h.h.h.a.a.a.p.t.t.t.t.t.g.g.k.p.0.(.(.(.(.(.(.(.",
"(.(.(.z k.k.k.a.h.a.a.a.p.p.p.t.t.t.g.g.a.q.L.(.(.(.(.(.(.",
"(.(.= l.h.k.h.h.h.h.g.y.=.$.>.r.t.t.t.t.a.u. .(.(.(.(.(.(.",
"(.(.k k.k.k.h.h.h.p.E.(.(.t 2 8 3.t.r.r.r.p.+.J.(.(.(.(.(.",
"(.: &.k.k.h.k.h.a.R.(.(.(.(.t 3 8 r.4.4.q.t.u.8.(.(.(.(.(.",
"(.O Q.h.k.h.k.h.t.(.(.(.(.(.(.q , -.4.4.1.q.u.[ (.(.(.(.(.",
"(.; %.d.k.k.h.h.R.(.(.(.(.(.(.x., E 4.2.1.4.u. .(.(.(.(.(.",
"(.(.(.(.(.f x F.^.(.(.(.(.(.(.x., C <.X.<.q.u.X.(.(.(.(.(.",
"(.(.(.(.(.(.(.(.(.(.(.(.(.(.(.w , :.1.<.<.q.@.7.(.(.(.(.(.",
"(.(.(.(.(.(.(.(.(.(.(.(.(.(.(.4 p <.<.1.q.u.@.G.(.(.(.(.(.",
"(.(.(.(.(.(.(.(.(.(.(.(.(.(.5 p <.1.1.q.w.i.3.(.(.(.(.(.(.",
"(.(.(.(.(.(.(.(.(.(.(.c.m.N *.1.1.1.q.w.u.+.(.(.(.(.(.(.(.",
"(.(.(.(.(.(.(.(.(.(.. Q t.t.4.1.1.q.u.i.w.!.(.(.(.(.(.(.(.",
"(.(.(.(.(.(.(.(.(.: . #.t.q.4.<.1.q.u.2.(.(.(.(.(.(.(.(.(.",
"(.(.(.(.(.(.(.(.(.X . ,.t.q.q.1.<.X.} Z.(.(.(.(.(.(.(.(.(.",
"(.(.(.(.(.(.(.(.(.& . p.p.w.q.1.;.;.;.T U ! (.(.(.(.(.(.(.",
"(.(.(.(.(.(.(.(.(.% $ e.e.r.4.q.<.;.T T T T ~ (.(.(.(.(.(.",
"(.(.(.(.(.(.(.(.(.(.e (.(.(.(.h / | ;.U U T T W (.(.(.(.(.",
"(.(.(.(.(.(.(.(.(.(.(.(.(.(.(.(.< V T U K U T I N.(.(.(.(.",
"(.(.(.(.(.(.(.(.(.(.(.(.(.(.(.(.r < K K G K U ' ^ (.(.(.(.",
"(.(.(.(.(.(.(.(.(.(.(.(.(.(.(.(.e < v K S A S ' I (.(.(.(.",
"(.(.(.(.(.(.(.(.(.(.(.(.(.(.(.(.b.1 9 K A Z S I [ D.(.(.(.",
"(.(.(.(.(.(.(.(.(.(.(.(.(.(.(.(.v.3 5 F B M A I [ R (.(.(.",
"(.(.(.(.% O * @ (.(.(.(.(.(.(.(.e 4 6 D M M Z ' [ n.(.(.(.",
"+   $ y l $.=.3.T.(.(.(.(.(.(.(.z.4 0 D m M S [ [ n.(.(.(.",
"(.z h.a.p.t.t.t.K.(.(.(.(.(.(.(.6 4 v M m M L ..' (.(.(.(.",
"(.y a.p.p.t.r.q.5.(.(.(.(.(.(.g 7 6 B m m Z I O./ (.(.(.(.",
"(.- p.t.t.r.q.4.4.L.(.(.(.(.j u 6 m B M B S  ...M.(.(.(.(.",
"(.(.#.p.r.r.4.<.<.<.Y n b b v i M Z B B A ' +.Y (.(.(.(.(.",
"(.(.g t.r.4.1.<.<.;.;.T U F S G A Z A U I O...m.(.(.(.(.(.",
"(.(.(.7.e.4.1.<.;.;.;.T Y U K K S S P ' O...B.(.(.(.(.(.(.",
"(.(.(.(.Y.2.<.<.;.;.} T T U U P I I [ O.O.E (.(.(.(.(.(.(.",
"(.(.(.(.(.J.;.<.<.;.| } } } ' ' | X.o.X.! (.(.(.(.(.(.(.(.",
"(.(.(.(.(.(.U.8.| X.X.<.<.X.X.X.o.o.6.(.(.(.(.(.(.(.(.(.(.",
"(.(.(.(.(.(.(.(.S.A.) { { { { H.C.(.(.(.(.(.(.(.(.(.(.(.(.",
"(.(.(.(.(.(.(.(.(.(.(.(.(.(.(.(.(.(.(.(.(.(.(.(.(.(.(.(.(.",
"(.(.(.(.(.(.(.(.(.(.(.(.(.(.(.(.(.(.(.(.(.(.(.(.(.(.(.(.(.",
"(.(.(.(.(.(.(.(.(.(.(.(.(.(.(.(.(.(.(.(.(.(.(.(.(.(.(.(.(.",
"(.(.(.(.(.(.(.(.(.(.(.(.(.(.(.(.(.(.(.(.(.(.(.(.(.(.(.(.(.",
"(.(.(.(.(.(.(.(.(.(.(.(.(.(.(.(.(.(.(.(.(.(.(.(.(.(.(.(.(.",
"(.(.(.(.(.(.(.(.(.(.(.(.(.(.(.(.(.(.(.(.(.(.(.(.(.(.(.(.(."
};
