/* XPM */
static char *result[] = {
/* columns rows colors chars-per-pixel */
"30 50 158 2 ",
"   c #432A04",
".  c #583805",
"X  c #52350B",
"o  c #583C1B",
"O  c #603F0A",
"+  c #593F22",
"@  c #7C5107",
"#  c #6C4A1C",
"$  c #6E5C14",
"%  c #7B5516",
"&  c #785618",
"*  c #725817",
"=  c #736115",
"-  c #7C6212",
";  c #594025",
":  c #624E3C",
">  c #79624A",
",  c #7A6247",
"<  c #6F6054",
"1  c #726352",
"2  c #805C18",
"3  c #8A6615",
"4  c #B27707",
"5  c #B07508",
"6  c #B47808",
"7  c #B97A08",
"8  c #B67C07",
"9  c #AB7B1C",
"0  c #826A53",
"q  c #84786E",
"w  c #887C6F",
"e  c #8F841A",
"r  c #948819",
"t  c #9A8D1B",
"y  c #9E951F",
"u  c #BA820A",
"i  c #BB8412",
"p  c #B5831C",
"a  c #BA851B",
"s  c #AD941E",
"d  c #B49F1F",
"f  c #BC971C",
"g  c #9F9722",
"h  c #A69D24",
"j  c #ABA222",
"k  c #BFAC22",
"l  c #C18709",
"z  c #C38A0B",
"x  c #C58E13",
"c  c #C28B1B",
"v  c #CC9314",
"b  c #D19614",
"n  c #D59B15",
"m  c #D99E16",
"M  c #DD9F18",
"N  c #CFA61D",
"B  c #DDA115",
"V  c #D7A119",
"C  c #DBA21A",
"Z  c #DBAB1C",
"A  c #E1A517",
"S  c #E9AC15",
"D  c #E2A519",
"F  c #E6AA1A",
"G  c #EBAD1A",
"H  c #E5AB13",
"J  c #F0AF1B",
"K  c #EDB017",
"L  c #EDB01B",
"P  c #F4B41C",
"I  c #F8B71D",
"U  c #F5B91B",
"Y  c #FCBB1E",
"T  c #D9AE20",
"R  c #DDB426",
"E  c #DFAC3D",
"W  c #FDBC20",
"Q  c #FEC31E",
"!  c #FDCC1D",
"~  c #FED31F",
"^  c #DEC026",
"/  c #DCD52D",
"(  c #DBD833",
")  c #E6C02C",
"_  c #E5CA27",
"`  c #FFC521",
"'  c #FFCC22",
"]  c #F5C52A",
"[  c #EADA2C",
"{  c #F6D426",
"}  c #FED425",
"|  c #FFDA27",
" . c #F6D52A",
".. c #FDD128",
"X. c #F6DF2A",
"o. c #FFDB29",
"O. c #F6DA25",
"+. c #FEE32A",
"@. c #F7EA2E",
"#. c #FEEC2C",
"$. c #FDE126",
"%. c #F7F02C",
"&. c #FEF32E",
"*. c #FEF92F",
"=. c #FAE531",
"-. c #FFEA30",
";. c #F5F435",
":. c #FFFE32",
">. c #FEFF38",
",. c #F7F535",
"<. c #999047",
"1. c #B68D48",
"2. c #97846F",
"3. c #9D8365",
"4. c #8C8177",
"5. c #908070",
"6. c #D7A44F",
"7. c #D9A645",
"8. c #D5AA64",
"9. c #D4AC6C",
"0. c #DAB069",
"q. c #CFAD7F",
"w. c #D5AE75",
"e. c #E1B160",
"r. c #E4BD7E",
"t. c #F4C948",
"y. c #F5C943",
"u. c #F4DF40",
"i. c #E5CC5A",
"p. c #F7CB5F",
"a. c #F7E646",
"s. c #F6E848",
"d. c #F8E958",
"f. c #EBC175",
"g. c #F4C970",
"h. c #F2C77A",
"j. c #F5D77E",
"k. c #AAA59C",
"l. c #CBB08D",
"z. c #D9B582",
"x. c #D4BB9A",
"c. c #D4BA95",
"v. c #E8BF83",
"b. c #E1BE8E",
"n. c #C9B7A0",
"m. c #D0BCA6",
"M. c #E6C187",
"N. c #EEC780",
"B. c #EFC983",
"V. c #F2CB8D",
"C. c #ECCA98",
"Z. c #F2D592",
"A. c #F5E09E",
"S. c #D7C6AF",
"D. c #E4CCAF",
"F. c #EAD2B3",
"G. c #E8E6DE",
"H. c None",
/* pixels */
"H.H.H.H.H.H.H.H.H.H.H.H.H.H.H.H.H.H.H.H.H.H.H.H.H.H.H.H.H.H.",
"H.H.H.H.H.H.H.H.H.H.H.H.H.H.H.H.H.H.H.H.H.H.H.H.H.H.H.H.H.H.",
"H.H.H.H.H.H.H.H.H.H.H.H.H.H.H.H.H.H.H.H.H.H.H.H.H.H.H.H.H.H.",
"H.H.H.H.H.H.H.H.H.H.H.H.H.H.H.H.H.H.H.H.H.H.H.H.H.H.H.H.H.H.",
"H.H.H.H.H.H.H.H.H.H.H.H.H.H.H.H.H.H.H.H.H.H.H.H.H.H.H.H.H.H.",
"H.H.H.H.H.H.H.H.H.H.H.H.H.H.H.H.H.H.H.H.H.H.H.H.H.H.H.H.H.H.",
"H.H.H.H.H.H.H.H.H.H.H.H.H.H.H.H.3.) |  . .=.=.Z.H.H.H.H.H.H.",
"H.H.H.H.H.H.H.H.H.H.H.H.H.H.H., f o.o.o.=.-.&.j.H.H.H.H.H.H.",
"H.H.H.H.H.H.H.H.H.H.H.H.H.H.4.- { o.o.} o.+.#.Z.H.H.H.H.H.H.",
"H.H.H.H.H.H.H.H.H.H.H.H.H.H.# R o.o.o.o.o.$.$.g.H.H.H.H.H.H.",
"H.H.H.H.H.H.H.H.H.H.H.H.H., s +.o.o.| | } } } V.H.H.H.H.H.H.",
"H.H.H.H.H.H.H.H.H.H.H.H.2.% X.+.o.o.| } ....} h.H.H.H.H.H.H.",
"H.H.H.H.H.H.H.H.H.H.H.H.# _ +.+.o.| } } ' ' } h.H.H.H.H.H.H.",
"H.H.H.H.H.H.H.H.H.H.H.0 j #.+.+.o.} } ..' ' ~ B.H.H.H.H.H.H.",
"H.H.H.H.H.H.H.H.H.H.5.3 #.#.+.+.| | ' ' ' ' } B.H.H.H.H.H.H.",
"H.H.H.H.H.H.H.H.H.H.% / &.#.#.+.| ..' ' ` ` ! h.H.H.H.H.H.H.",
"H.H.H.H.H.H.H.H.H.> N *.&.&.&.#.{ } ' ' ` Q ! v.H.H.H.H.H.H.",
"H.H.H.H.H.H.H.H.5.= ;.*.&.#.#.$.R ..' ` Q Q ! M.H.H.H.H.H.H.",
"H.H.H.H.H.H.H.H.o ( *.*.*.#.#._ c ..' ` Y Q ! r.H.H.H.H.H.H.",
"H.H.H.H.H.H.H.: j :.*.*.*.#.X.x a } ' Q Q Q ! c.H.H.H.H.H.H.",
"H.H.H.H.H.H.1 = ;.:.*.*.&.@.i.7 9 ' ' Q Q Y ! H.H.H.H.H.H.H.",
"H.H.H.H.H.H.o ( :.*.*.*.&.u.H.6 9 ' ' ` Y Y Q D.H.H.H.H.H.H.",
"H.H.H.H.H.< h :.:.:.*.*.=.H.H.5 9 ' ` W I I ! H.H.H.H.H.H.H.",
"H.H.H.H.4.= ;.:.:.*.*.%.s.H.H.6 9 ! ` Y I I Q F.H.H.H.H.H.H.",
"H.H.H.H.X ( :.:.*.:.*.a.H.H.H.8 p ' Q Y U U ~ H.H.H.H.H.H.H.",
"H.H.H.; h :.>.:.:.*.%.H.H.H.H.u a Q Q Y U U ~ D.H.H.H.H.H.H.",
"H.H.1 $ ;.:.:.:.*.*.d.H.H.H.H.z p ` Y I P U ! C.H.H.H.H.H.H.",
"H.H.; ( >.:.:.:.*.s.H.H.H.H.H.z a Y Y P J P ! F.H.H.H.H.H.H.",
"H.q h >.>.:.:.:.&.H.H.H.H.H.H.u a Q I P G P Q 0.S.H.G.H.H.H.",
"H.$ ;.:.:.:.:.,.[ f N T Z Z C V C W I J F G U n b x x q.H.H.",
"H.g >.:.:.:.*.*.&.#.+.$.| ..' ` Y Y P F D F D b v i m 9.H.H.",
"k.g :.:.:.:.*.&.#.+.+.| } } ' ' Q I J F D D C v v i B w.H.H.",
"H.t :.:.:.*.&.#.#.+.| | } } ! ! W P F D M A m v x i B 8.H.H.",
"k.r :.:.*.:.&.#.+.+.| } } ' ' Q W J F D m M n v v z H 8.H.H.",
"H.e :.:.*.&.#.#.+.| } } } } ! Q W F D M n m m m B B S w.H.H.",
"H.<.&.%.@.#.=.O.{ { ..] y.t.p.F C F C M n m G z.c.l.x.H.H.H.",
"H.H.H.H.H.H.H.H.H.H.H.H.H.H.H.@ 3 D M n b m S c.H.H.H.H.H.H.",
"H.H.H.H.H.H.H.H.H.H.H.H.H.H.H.. % D M b v v B m.H.H.H.H.H.H.",
"H.H.H.H.H.H.H.H.H.H.H.H.H.H.H.  & m m b b v m H.H.H.H.H.H.H.",
"H.H.H.H.H.H.H.H.H.H.H.H.H.H.H.  * m b n b v b H.H.H.H.H.H.H.",
"H.H.H.H.H.H.H.H.H.H.H.H.H.H.H.  & m m b x v b H.H.H.H.H.H.H.",
"H.H.H.H.H.H.H.H.H.H.H.H.H.H.H.: 3 B B b b B B n.H.H.H.H.H.H.",
"H.H.H.H.H.H.H.H.H.H.H.H.H.H.H.H.1.L F E 7.e.6.H.H.H.H.H.H.H.",
"H.H.H.H.H.H.H.H.H.H.H.H.H.H.H.H.H.H.H.H.H.H.H.H.H.H.H.H.H.H.",
"H.H.H.H.H.H.H.H.H.H.H.H.H.H.H.H.H.H.H.H.H.H.H.H.H.H.H.H.H.H.",
"H.H.H.H.H.H.H.H.H.H.H.H.H.H.H.H.H.H.H.H.H.H.H.H.H.H.H.H.H.H.",
"H.H.H.H.H.H.H.H.H.H.H.H.H.H.H.H.H.H.H.H.H.H.H.H.H.H.H.H.H.H.",
"H.H.H.H.H.H.H.H.H.H.H.H.H.H.H.H.H.H.H.H.H.H.H.H.H.H.H.H.H.H.",
"H.H.H.H.H.H.H.H.H.H.H.H.H.H.H.H.H.H.H.H.H.H.H.H.H.H.H.H.H.H.",
"H.H.H.H.H.H.H.H.H.H.H.H.H.H.H.H.H.H.H.H.H.H.H.H.H.H.H.H.H.H."
};
