/* XPM */
static char *_39e954071b34dd2d20ebe9d22143eeeJLBQtzQaBWixy4s0[] = {
/* columns rows colors chars-per-pixel */
"64 64 23 1 ",
"  c None",
". c black",
"X c #0B0B0B",
"o c #131313",
"O c #191919",
"+ c gray12",
"@ c gray15",
"# c #2A2A2A",
"$ c gray18",
"% c gray20",
"& c gray22",
"* c #3F3F3F",
"= c gray27",
"- c #4B4B4B",
"; c #515151",
": c gray34",
"> c #626262",
", c #6A6A6A",
"< c #7B7B7B",
"1 c #818181",
"2 c gray58",
"3 c #A0A0A0",
"4 c #A9A9A9",
/* pixels */
"                                                                ",
"                                                                ",
"                                                                ",
"                                                                ",
"                                                                ",
"                                                                ",
"                                                                ",
"                                                                ",
"                                                                ",
"                                                                ",
"                       *o.........@     X........%4..........:  ",
"                      *X.........#      X.......$3 ..........:  ",
"                     *o.........@       X......$3  ..........:  ",
"                    *X.........@        X.....#3   ..........:  ",
"                   *o.........@         X....$3    ..........:  ",
"                  *X.........@          X...#3     ..........:  ",
"                 *o.........+           X..$3      ..........:  ",
"                =X.........+            X.#3       ..........:  ",
"               =o.........+             X$3        ..........:  ",
"              =X.........+              #2         ..........:  ",
"             =o.........O               2          ..........:  ",
"            =X.........O                          <.........+   ",
"           =o.........O                          <.........+    ",
"          =X.........O                          <.........+     ",
"         =o.........o                          <.........@      ",
"        =X.........o                          <.........+       ",
"       =o.........o                          <.........@        ",
"      =X.........o                          <.........+         ",
"     =o.........X                          <.........@          ",
"    =X.........X                          <.........@           ",
"   =o.........X                          <.........@            ",
"  -o.........$                          <.........O             ",
"  :..........@@@@@@@@@@@@@@@@@@@@@$     X.........$          <  ",
"  :...............................O     X.........$         &:  ",
"  :...............................O     X.........$        %.:  ",
"  :...............................O     X.........$       %..:  ",
"  :...............................O     X.........$      %...:  ",
"  :...............................O     X.........$     %....:  ",
"  :...............................O     X.........$    $.....:  ",
"  :...............................O     X.........$   $......:  ",
"  ,;;;;;;;;;;;;;;;;;;;;;O.........O     X.........$  $.......:  ",
"                        >.........O     X.........$ #........:  ",
"                        ,.........O     X.........$$.........:  ",
"                        ,.........O                             ",
"                        ,.........O                             ",
"                        ,.........O                             ",
"                        ,.........O                             ",
"                        ,.........O                             ",
"                        ,.........O                             ",
"                        ,.........O                             ",
"                        ,.........O                             ",
"                        1>>>>>>>>>,                             ",
"                                                                ",
"                                                                ",
"                                                                ",
"                                                                ",
"                                                                ",
"                                                                ",
"                                                                ",
"                                                                ",
"                                                                ",
"                                                                ",
"                                                                ",
"                                                                "
};
