/* XPM */
static char *result[] = {
/* columns rows colors chars-per-pixel */
"36 50 167 2 ",
"   c #533506",
".  c #5F3B07",
"X  c #57380A",
"o  c #533815",
"O  c #593D1B",
"+  c #573F23",
"@  c #5D410A",
"#  c #705B17",
"$  c #795F17",
"%  c #776115",
"&  c #5E4120",
"*  c #5B442E",
"=  c #62472A",
"-  c #654B32",
";  c #614F3B",
":  c #6F583C",
">  c #7B653F",
",  c #5F5041",
"<  c #655240",
"1  c #865E08",
"2  c #8F6807",
"3  c #8A630A",
"4  c #926A0D",
"5  c #946C07",
"6  c #9C7109",
"7  c #8A7F1F",
"8  c #9F7211",
"9  c #A4750A",
"0  c #AB7B0C",
"q  c #A57710",
"w  c #8D6E36",
"e  c #95841B",
"r  c #9F911F",
"t  c #B1800B",
"y  c #BC890C",
"u  c #BB8612",
"i  c #BE8A17",
"p  c #8D8020",
"a  c #9A8F23",
"s  c #999023",
"d  c #AC862D",
"f  c #BB952F",
"g  c #AC873D",
"h  c #BB9434",
"j  c #BD9A3F",
"k  c #B6A021",
"l  c #B0A72A",
"z  c #B3A828",
"x  c #B8B229",
"c  c #C58E14",
"v  c #C88F13",
"b  c #CC9314",
"n  c #D19615",
"m  c #D49A16",
"M  c #D99E16",
"N  c #DDA216",
"B  c #DEA815",
"V  c #DCA21A",
"C  c #CBB01F",
"Z  c #E1A617",
"A  c #E4A916",
"S  c #E2A519",
"D  c #E6A919",
"F  c #EBAD1A",
"G  c #E9AC15",
"H  c #E6B517",
"J  c #E9B516",
"K  c #EFB11B",
"L  c #EFBC1A",
"P  c #EEBC15",
"I  c #F6B917",
"U  c #F3B41B",
"Y  c #F8B71E",
"T  c #F7BA1A",
"R  c #FBBC1C",
"E  c #C7922A",
"W  c #C2982F",
"Q  c #CD9A22",
"!  c #C89836",
"~  c #CEA22E",
"^  c #DCA52D",
"/  c #D4A12E",
"(  c #C3B72B",
")  c #D8A734",
"_  c #E2A823",
"`  c #E7B420",
"'  c #EAB721",
"]  c #F7BE23",
"[  c #FDBF20",
"{  c #F1B52C",
"}  c #E7B73B",
"|  c #E2B437",
" . c #F5BD3E",
".. c #FEC21E",
"X. c #FBCE1F",
"o. c #CDC62D",
"O. c #CAC430",
"+. c #D9D433",
"@. c #FEC521",
"#. c #FFCC22",
"$. c #E9DF2C",
"%. c #FED425",
"&. c #FEDB26",
"*. c #FFDB29",
"=. c #F6DC2A",
"-. c #E3CA3F",
";. c #F8CA39",
":. c #E1DE34",
">. c #F6D937",
",. c #EAE72F",
"<. c #FEE32A",
"1. c #FEEC2C",
"2. c #FEF32E",
"3. c #FEF92F",
"4. c #EDEB37",
"5. c #FFED32",
"6. c #F5EB31",
"7. c #FAF433",
"8. c #FEFE33",
"9. c #F5F33A",
"0. c #FEFF39",
"q. c #A98743",
"w. c #B88E40",
"e. c #BE9640",
"r. c #BE9B41",
"t. c #C39742",
"y. c #CBA44F",
"u. c #D2A14A",
"i. c #D8AF56",
"p. c #DAAB5A",
"a. c #D4AC57",
"s. c #E0AC45",
"d. c #E1B646",
"f. c #EDB94B",
"g. c #F3BE44",
"h. c #E3B056",
"j. c #CFA764",
"k. c #CBA768",
"l. c #D6AD67",
"z. c #E3B562",
"x. c #DEC74C",
"c. c #F5C742",
"v. c #E8DF4D",
"b. c #F2D746",
"n. c #E8C252",
"m. c #F4C052",
"M. c #F4CE5A",
"N. c #F6DE55",
"B. c #F6D75A",
"V. c #FCDC52",
"C. c #EFE647",
"Z. c #F7EB44",
"A. c #F5E152",
"S. c #F4EF50",
"D. c #FBEC51",
"F. c #F6F253",
"G. c #FAF55B",
"H. c #FBF956",
"J. c #DCC66A",
"K. c #DED060",
"L. c #F7CF60",
"P. c #F8D862",
"I. c #F7D567",
"U. c #F1D578",
"Y. c #FBDD73",
"T. c #F6EE65",
"R. c None",
/* pixels */
"R.R.R.R.R.R.R.R.R.R.R.R.R.R.R.R.R.R.R.R.R.R.R.R.R.R.R.R.R.R.R.R.R.R.R.R.",
"R.R.R.R.R.R.R.R.R.R.R.R.R.R.R.R.R.R.R.R.R.R.R.R.R.R.R.R.R.R.R.R.R.R.R.R.",
"R.R.R.R.R.R.R.R.R.R.R.R.R.R.R.R.R.R.R.R.R.R.R.R.R.R.R.R.R.R.R.R.R.R.R.R.",
"R.R.R.R.R.R.R.R.R.R.R.R.R.R.R.R.R.R.R.R.R.R.R.R.R.R.R.R.R.R.R.R.R.R.R.R.",
"R.R.R.R.R.R.R.R.R.R.R.R.R.R.R.R.R.R.R.R.R.R.R.R.R.R.R.R.R.R.R.R.R.R.R.R.",
"R.R.R.R.R.R.R.R.R.R.R.R.R.R.R.R.R.R.R.R.R.R.R.R.R.R.R.R.R.R.R.R.R.R.R.R.",
"R.R.R.R.R.R.R.R.R.> S.S.F.G.D.>.b.b.B.Y.L.c.B.n.U.U.R.R.R.R.R.R.R.R.R.R.",
"R.R.R.R.R.R.R.R.R.e 0.8.8.8.2.1.1.<.*.&.*.*.*.*.5.2.5.=.R.R.R.R.R.R.R.R.",
"R.R.R.R.R.R.R.R.= z 0.0.3.3.3.1.1.<.<.*.*.*.*.*.<.<.*.<.R.R.R.R.R.R.R.R.",
"R.R.R.R.R.R.R.R.- o.8.8.8.3.3.2.1.<.*.*.*.%.*.*.*.*.*.&.R.R.R.R.R.R.R.R.",
"R.R.R.R.R.R.R.R.O :.8.8.8.3.3.2.1.<.<.*.*.%.*.%.%.%.#.&.R.R.R.R.R.R.R.R.",
"R.R.R.R.R.R.R.R.. 9.0.8.8.8.3.2.1.1.*.*.*.*.%.%.%.#.@.%.R.R.R.R.R.R.R.R.",
"R.R.R.R.R.R.R.R.$ 8.0.8.8.3.8.2.1.1.<.&.%.%.%.#.#.#.[ X.R.R.R.R.R.R.R.R.",
"R.R.R.R.R.R.R.& r 0.8.8.8.8.3.x.d h W r.j h e.k.! l.E R.R.R.R.R.R.R.R.R.",
"R.R.R.R.R.R.R.- ( 0.8.8.8.3.2.R.R.R.R.R.R.R.R.R.R.R.R.R.R.R.R.R.R.R.R.R.",
"R.R.R.R.R.R.R.& +.0.0.8.8.8.6.R.R.R.R.R.R.R.R.R.R.R.R.R.R.R.R.R.R.R.R.R.",
"R.R.R.R.R.R.R.X 4.0.0.8.8.8.C.R.R.R.R.R.R.R.R.R.R.R.R.R.R.R.R.R.R.R.R.R.",
"R.R.R.R.R.R.R.@ 0.0.8.8.8.8.v.R.R.R.R.R.R.R.R.R.R.R.R.R.R.R.R.R.R.R.R.R.",
"R.R.R.R.R.R.R.p 0.0.0.8.8.8.K.g J.A.N.P.L.R.R.R.R.R.R.R.R.R.R.R.R.R.R.R.",
"R.R.R.R.R.R.* z 0.0.8.8.8.7.,.1.2.1.*.%.#.@.] f.R.R.R.R.R.R.R.R.R.R.R.R.",
"R.R.R.R.R.R.* O.0.0.8.8.8.8.3.2.1.<.&.%.#...@.[ { R.R.R.R.R.R.R.R.R.R.R.",
"R.R.R.R.R.R.o :.0.0.8.8.8.3.8.2.1.<.&.%.#.#.@.R R K ) R.R.R.R.R.R.R.R.R.",
"R.R.R.R.R.R.  9.0.0.8.8.8.3.3.2.1.<.&.%.#.@...Y R U V R.R.R.R.R.R.R.R.R.",
"R.R.R.R.R.R.# 0.0.8.8.8.3.3.3.2.<.=.&.X.#...R Y Y Y Y _ R.R.R.R.R.R.R.R.",
"R.R.R.R.R.< s 0.0.8.8.3.3.3.Z.A.R.R.R.f ' [ Y U T ..U A u.R.R.R.R.R.R.R.",
"R.R.R.R.R.; x 0.0.8.8.3.3.F.R.R.R.R.R.R.4 V Y ] T ..Z M _ R.R.R.R.R.R.R.",
"R.R.R.R.R.R.R.R.R.G.G.H.T.R.R.R.R.R.R.R.w 4 ` K T I N m F R.R.R.R.R.R.R.",
"R.R.R.R.R.R.R.R.R.R.R.R.R.R.R.R.R.R.R.R.R.3 c F U U M n D p.R.R.R.R.R.R.",
"R.R.R.R.R.R.R.R.R.R.R.R.R.R.R.R.R.R.R.R.R.3 q D U K M b N z.R.R.R.R.R.R.",
"R.R.R.R.R.R.R.R.R.R.R.R.R.R.R.R.R.R.R.R.R.2 3 D F F m b n s.R.R.R.R.R.R.",
"R.R.R.R.R.R.R.R.R.R.R.R.R.R.R.R.R.R.R.R.R.5 1 S D N b c c ^ R.R.R.R.R.R.",
"R.R.R.R.R.R.R.R.R.R.R.R.R.R.R.R.R.R.R.R.R.6 3 S Z M b b b h.R.R.R.R.R.R.",
"R.R.R.R.R.R.R.R.R.R.: R.R.R.R.R.R.R.R.R.R.6 4 V S M v v b i.R.R.R.R.R.R.",
"R.R.R.R.R.* O   % e k C x.R.R.R.R.R.R.R.q.9 q M M m n v B j.R.R.R.R.R.R.",
"R.R.R.R.R.s ,.2.7.1.<.<.>.R.R.R.R.R.R.R.d 9 c m M M n M ..R.R.R.R.R.R.R.",
"R.R.R.R.R.p 3.3.2.1.<.<.%.R.R.R.R.R.R.w.0 9 m n M M b Z | R.R.R.R.R.R.R.",
"R.R.R.R.R., 6.1.1.<.<.&.%.;.R.R.R.R.t.y 0 c m n m n u J R.R.R.R.R.R.R.R.",
"R.R.R.R.R.R.( 1.1.&.&.%.%.X.] / Q m b u b M n b b v c ) R.R.R.R.R.R.R.R.",
"R.R.R.R.R.R.R.<.<.&.&.%.#.#...R ` S V S M m n n b v J R.R.R.R.R.R.R.R.R.",
"R.R.R.R.R.R.R.x.&.&.%.%.#.@...R U F D V M m m n b J u.R.R.R.R.R.R.R.R.R.",
"R.R.R.R.R.R.R.R.V.X.#.#.#...R R U F Z M m M n c J ~ R.R.R.R.R.R.R.R.R.R.",
"R.R.R.R.R.R.R.R.R.M.@.@.@.R R R U K A Z Z N B ` a.R.R.R.R.R.R.R.R.R.R.R.",
"R.R.R.R.R.R.R.R.R.R.R.c.@.@.....R T T T R L d.R.R.R.R.R.R.R.R.R.R.R.R.R.",
"R.R.R.R.R.R.R.R.R.R.R.R.R.m.f. .g.c.f.} i.R.R.R.R.R.R.R.R.R.R.R.R.R.R.R.",
"R.R.R.R.R.R.R.R.R.R.R.R.R.R.R.R.R.R.R.R.R.R.R.R.R.R.R.R.R.R.R.R.R.R.R.R.",
"R.R.R.R.R.R.R.R.R.R.R.R.R.R.R.R.R.R.R.R.R.R.R.R.R.R.R.R.R.R.R.R.R.R.R.R.",
"R.R.R.R.R.R.R.R.R.R.R.R.R.R.R.R.R.R.R.R.R.R.R.R.R.R.R.R.R.R.R.R.R.R.R.R.",
"R.R.R.R.R.R.R.R.R.R.R.R.R.R.R.R.R.R.R.R.R.R.R.R.R.R.R.R.R.R.R.R.R.R.R.R.",
"R.R.R.R.R.R.R.R.R.R.R.R.R.R.R.R.R.R.R.R.R.R.R.R.R.R.R.R.R.R.R.R.R.R.R.R.",
"R.R.R.R.R.R.R.R.R.R.R.R.R.R.R.R.R.R.R.R.R.R.R.R.R.R.R.R.R.R.R.R.R.R.R.R."
};
