/* XPM */
static char *_525eec859844d7489255349ed4662bf0XFx7QvkmeyXg3gv[] = {
/* columns rows colors chars-per-pixel */
"34 50 182 2 ",
"   c None",
".  c #4B2F0B",
"X  c #4E3204",
"o  c #513505",
"O  c #52350F",
"+  c #5A3D1B",
"@  c #4A3620",
"#  c #4E3820",
"$  c #4F3E2C",
"%  c #563D20",
"&  c #5B4006",
"*  c #5A491B",
"=  c #584127",
"-  c #55422B",
";  c #5C452E",
":  c #6F5E3D",
">  c #705F43",
",  c #8F6607",
"<  c #936B09",
"1  c #996F08",
"2  c #946A07",
"3  c #9F7308",
"4  c #A47508",
"5  c #A87609",
"6  c #AA790A",
"7  c #B17F0F",
"8  c #B07F10",
"9  c #936D24",
"0  c #997637",
"q  c #987533",
"w  c #B3820B",
"e  c #BC880C",
"r  c #B48313",
"t  c #BB8512",
"y  c #BA8812",
"u  c #B4831D",
"i  c #8F8223",
"p  c #988E24",
"a  c #9F9225",
"s  c #B38022",
"d  c #AD9E25",
"f  c #A88338",
"g  c #AC8332",
"h  c #B28837",
"j  c #B48339",
"k  c #BF9234",
"l  c #B7B02D",
"z  c #B9B428",
"x  c #C6900D",
"c  c #C28B13",
"v  c #C98F13",
"b  c #CD9314",
"n  c #CB9619",
"m  c #C99A19",
"M  c #C2921B",
"N  c #D19715",
"B  c #D49B14",
"V  c #D99E16",
"C  c #D29A18",
"Z  c #DCA115",
"A  c #DDA815",
"S  c #DEA118",
"D  c #E2A616",
"F  c #E4AA16",
"G  c #E3A619",
"H  c #E6A81A",
"J  c #ECAE1A",
"K  c #EFB119",
"L  c #ECBA17",
"P  c #F4B51B",
"I  c #F9B71D",
"U  c #F7B81B",
"Y  c #FBBC1D",
"T  c #CD9A25",
"R  c #DEA82D",
"E  c #DEB027",
"W  c #D3BC27",
"Q  c #C0A830",
"!  c #DCA331",
"~  c #D4AE3D",
"^  c #E8B720",
"/  c #E4B628",
"(  c #E9B829",
")  c #E4B624",
"_  c #E2AD3B",
"`  c #E2AA32",
"'  c #E6B832",
"]  c #E1B43F",
"[  c #EFB83F",
"{  c #F5BB33",
"}  c #FDC21D",
"|  c #F6C519",
" . c #C9C32E",
".. c #D2CF2D",
"X. c #D0CB32",
"o. c #DFDB31",
"O. c #D8D435",
"+. c #EDCB25",
"@. c #F0C023",
"#. c #FEC521",
"$. c #FFCB22",
"%. c #F6C72D",
"&. c #F3C82C",
"*. c #EFD024",
"=. c #E5D72B",
"-. c #E1D82C",
";. c #F6D426",
":. c #FFD425",
">. c #FEDB27",
",. c #FEDB29",
"<. c #F2DC2B",
"1. c #F8CD36",
"2. c #F2C03A",
"3. c #FAC43B",
"4. c #F0CE3C",
"5. c #FBCD3E",
"6. c #E0DB3D",
"7. c #F9D338",
"8. c #FBD435",
"9. c #FFE127",
"0. c #FEE429",
"q. c #FEEC2C",
"w. c #FEF32E",
"e. c #FEFA2F",
"r. c #E7E536",
"t. c #E3E039",
"y. c #EBE938",
"u. c #ECEB33",
"i. c #FAE335",
"p. c #F1EE31",
"a. c #F6EF3B",
"s. c #F9EA36",
"d. c #F6F132",
"f. c #FDF531",
"g. c #FEFE33",
"h. c #F9F73F",
"j. c #FEFF3A",
"k. c #A8894E",
"l. c #B58E4C",
"z. c #BC9051",
"x. c #BD9D51",
"c. c #D6AA4F",
"v. c #CBA45C",
"b. c #DBB659",
"n. c #E1AE41",
"m. c #E1AE4D",
"M. c #EEB841",
"N. c #E6B34C",
"B. c #EABB48",
"V. c #EBB547",
"C. c #F2BA44",
"Z. c #E8B658",
"A. c #C59C69",
"S. c #DCB36A",
"D. c #D8B471",
"F. c #E5BA6F",
"G. c #E1B776",
"H. c #E1C74E",
"J. c #E3CF4B",
"K. c #F6C54F",
"L. c #F8C74C",
"P. c #F1C94F",
"I. c #F5DD4E",
"U. c #EDC853",
"Y. c #F0C155",
"T. c #FAC852",
"R. c #FBD251",
"E. c #F4D35B",
"W. c #F8D958",
"Q. c #F5E040",
"!. c #F9EF43",
"~. c #FCF943",
"^. c #F6E65D",
"/. c #F9E75C",
"(. c #F8EF5E",
"). c #F5E453",
"_. c #F4C469",
"`. c #F5CE78",
"'. c #F6ED62",
"]. c #F9EF6A",
"[. c #F5E872",
"{. c #F4DDB1",
/* pixels */
"                                                                    ",
"                                                                    ",
"                                                                    ",
"                                                                    ",
"                                                                    ",
"                                                                    ",
"                        ]./.i.,.,.,.;.7.E.                          ",
"                    6.~.f.w.q.0.,.,.,.,.,.,.1.                      ",
"                  O.g.g.e.q.q.0.0.,.,.,.,.,.,.8.{.                  ",
"              > o.g.g.g.e.w.q.0.0.,.:.,.,.,.,.0.L.                  ",
"               .g.g.g.e.e.w.q.q.0.,.,.,.:.:.:.:.:.L.                ",
"            p j.j.g.g.g.g.f.q.0.*.+.,.,.:.:.:.$.} $.                ",
"          + r.j.g.g.g.g.e.w.).  z.s 8 / :.:.$.:.#.$.P.              ",
"          a j.j.j.g.g.g.e.^.        s 6 ( $.$.$.Y P &.              ",
"        ; O.j.j.j.g.g.g.!.          l.w m $.#.#.I K |               ",
"        + h.j.j.g.g.g.g.'.            6 r 3.T.3._.m.F.              ",
"        i j.j.j.g.g.g.f.                                            ",
"      = l j.j.j.g.g.g.a.                                            ",
"      = X.j.j.g.j.g.g.(.                                            ",
"      % t.j.j.j.g.g.g.[.  A.x.H.W.W.R.`.Y.                          ",
"      O y.j.j.j.j.g.g.J.j W q.0.0.:.$.$.#.{ N.                      ",
"      O h.j.j.g.g.g.g.W =.w.q.9.,.:.:.$.#.I I B.                    ",
"      o ~.j.g.j.g.g.u.d.e.w.q.0.>.:.$.} } I Y I !                   ",
"      o j.j.j.g.g.g.g.g.g.e.q.q.9.>.$.$.Y I I I P _                 ",
"      o j.j.g.g.g.g.g.g.g.w.i.I.E.~ ^ #.Y U U } U F S.              ",
"      & j.j.j.g.g.g.e.e.e.i.        q M Y U U } J V !               ",
"      X j.j.g.g.e.e.e.e.s.            < n P U Y D B F               ",
"      X j.j.g.g.e.e.e.w.^.            9 < J K P D N D G.            ",
"      . j.j.g.g.e.e.e.p.              0 , C J P S N B _             ",
"      # u.g.g.g.g.w.e.0.              q 2 c J K V b b N.            ",
"      - r.g.e.e.g.w.q.0.              k.1 y G F N b c R             ",
"      - ..g.e.g.w.q.q.>.              f 4 r G S b b t `             ",
"        z g.e.e.q.q.0.;.              g 4 y S S b b t Z.            ",
"        p g.e.q.q.q.0.;.              h 5 c V V b b b _             ",
"        * f.e.q.q.0.,.>.U.            w 5 n B V N V L S.            ",
"        @ -.w.q.0.,.>.:.%.          k e 7 B B S b B |               ",
"          d q.q.9.>.:.:.$.[     c.T x w b N B B c N /               ",
"          : <.0.>.>.:.:.$.} I Z V B v C C b b b w A v.              ",
"            Q ,.>.:.:.} #.#.I K J G S B N b b b x E                 ",
"              4.:.:.$.#.#.Y I K G D V B B B b C ^                   ",
"                R.$.#.#.Y Y P J F Z V B B v B L                     ",
"                  L.#.} Y Y P P F F D A Z F '                       ",
"                    _.2.} } Y Y U U Y } / b.                        ",
"                          [ C.[ [ B.] D.                            ",
"                                                                    ",
"                                                                    ",
"                                                                    ",
"                                                                    ",
"                                                                    ",
"                                                                    "
};
