/* XPM */
static char *aedaa203e19249adf3765154c482be71Z4bYErdfxU0XrLl7[] = {
/* columns rows colors chars-per-pixel */
"39 50 132 2 ",
"   c None",
".  c #543606",
"X  c #5A3906",
"o  c #533509",
"O  c #533916",
"+  c #633F07",
"@  c #543E26",
"#  c #684407",
"$  c #624009",
"%  c #6A470A",
"&  c #724C07",
"*  c #7B5106",
"=  c #75520C",
"-  c #795009",
";  c #775211",
":  c #77541B",
">  c #594126",
",  c #58432C",
"<  c #5A4734",
"1  c #664F36",
"2  c #644E3A",
"3  c #65503D",
"4  c #655545",
"5  c #6B5B4B",
"6  c #726355",
"7  c #726559",
"8  c #845B08",
"9  c #91680D",
"0  c #8F7814",
"q  c #9A7C17",
"w  c #8D672F",
"e  c #957037",
"r  c #A57522",
"t  c #836B4F",
"y  c #8D765E",
"u  c #927E65",
"i  c #9B8118",
"p  c #AC8815",
"a  c #BC8B15",
"s  c #B5971B",
"d  c #B1991E",
"f  c #BDA11D",
"g  c #B7AF2B",
"h  c #BDB42D",
"j  c #BFB92F",
"k  c #AFA730",
"l  c #CCA91F",
"z  c #DAB41F",
"x  c #F3B31C",
"c  c #FCBB1E",
"v  c #C5AA21",
"b  c #DFB524",
"n  c #C4BE3A",
"m  c #E1B021",
"M  c #EFB521",
"N  c #EABC22",
"B  c #FEBF21",
"V  c #F6B82F",
"C  c #F4BF33",
"Z  c #F0B839",
"A  c #F6C01C",
"S  c #FDC31E",
"D  c #F7CC1E",
"F  c #FACF1E",
"G  c #FCD31F",
"H  c #DBC324",
"J  c #E4C625",
"K  c #EECD26",
"L  c #FEC521",
"P  c #F5C923",
"I  c #FECC22",
"U  c #F5C92B",
"Y  c #E7D229",
"T  c #F2D427",
"R  c #FFD324",
"E  c #FEDB26",
"W  c #F2D928",
"Q  c #FEDC29",
"!  c #F7CA33",
"~  c #F5C63B",
"^  c #F8CD3C",
"/  c #F6D636",
"(  c #FFE226",
")  c #FEE32A",
"_  c #FFEB2C",
"`  c #FFF32E",
"'  c #FFF82F",
"]  c #FBE930",
"[  c #FEFE34",
"{  c #F6F53F",
"}  c #FFFF3B",
"|  c #B89358",
" . c #9D8667",
".. c #B4956C",
"X. c #C39F4F",
"o. c #E3AC45",
"O. c #EBB648",
"+. c #E4B253",
"@. c #F1BE57",
"#. c #CEAF66",
"$. c #C5A66D",
"%. c #C3A97B",
"&. c #CCB475",
"*. c #E9BA68",
"=. c #F2C14E",
"-. c #F3DD47",
";. c #ECC65C",
":. c #F3C256",
">. c #F3CD52",
",. c #F9C658",
"<. c #F4CD5D",
"1. c #F9D955",
"2. c #F4EE42",
"3. c #F5F543",
"4. c #FDF943",
"5. c #F1EB55",
"6. c #F4EC57",
"7. c #F3E35E",
"8. c #F7F056",
"9. c #F2C26B",
"0. c #F3C46B",
"q. c #F9D862",
"w. c #EAC077",
"e. c #EFC270",
"r. c #F0C574",
"t. c #F7C771",
"y. c #F3C874",
"u. c #F4C97D",
"i. c #F3D576",
"p. c #F9ED61",
"a. c #F1D186",
"s. c #F7DC83",
/* pixels */
"                                                                              ",
"                                                                              ",
"                                                                              ",
"                                                                              ",
"                                                                              ",
"                                                                              ",
"                                                                              ",
"                  n } 4.4.2.5.6.8.p.7.-.Q / 1.q.>.^ a.;.i.  s.                ",
"                4 j } } } [ [ [ ' ' ` _ ) ) Q Q Q Q / ) ] ] / ) G             ",
"                5 h } } } [ [ [ [ [ ` _ _ ) Q E Q Q Q Q ] ) Q Q _             ",
"                7 h } } } [ [ [ ' [ ' _ _ ( Q Q Q R Q Q Q Q E R G             ",
"                @ h } } } } [ [ [ ' ' ` _ ) Q Q Q Q R R Q R R R E             ",
"                7 g } } } } [ [ [ ' ' ' _ _ Q Q Q Q R R I I L I G             ",
"                < k 3.3.3.[ } [ [ ' ' ' ] ) ) Q R R R I I I B L :.            ",
"                                  ..%.$.&.#.X.| a m I I I S B Z               ",
"                                              r a I I I L L V                 ",
"                                            e 9 P I I L L L *.                ",
"                                           .8 z R I L L L @.                  ",
"                                          : p E R I L B U                     ",
"                                        t & K E I I L L 9.                    ",
"                                        $ s Q R I I L C                       ",
"                                      1 = W R R I L L 9.                      ",
"                                      X f Q E R I L ~                         ",
"                                    3 % W ( E R I I r.                        ",
"                                    . d _ ) E I I !                           ",
"                                  5 . Y ) E E I I =.                          ",
"                                  > 0 ) ( E R I P                             ",
"                                  . H ( E R I I <.                            ",
"                                4 = ) ( E R I G :.                            ",
"                                o s ) E R R I G                               ",
"                              7 X H ( Q R I I ~                               ",
"                              3 % W Q E R I I r.                              ",
"                              O i ( E R R I D                                 ",
"                              . v E R R S I U                                 ",
"                            4 # J E R I R F <.                                ",
"                            , ; Q R R R R G @.                                ",
"                            6 q E R I R R D                                   ",
"                            o s R I I S S A                                   ",
"                            X l R I L L c x                                   ",
"                            + b I I c B x O.                                  ",
"                            & N S S S c x o.                                  ",
"                          u - L S S c c x +.                                  ",
"                          y - L S S c c x o.                                  ",
"                            w L S S S S c *.                                  ",
"                              ,.t.y.u.                                        ",
"                                                                              ",
"                                                                              ",
"                                                                              ",
"                                                                              ",
"                                                                              "
};
