/* XPM */
static char *_57eb914bc034c78f918e02a22ec18916FRMIrTwYq9gbwkU[] = {
/* columns rows colors chars-per-pixel */
"32 50 171 2 ",
"   c None",
".  c #4E3205",
"X  c #49310D",
"o  c #53350A",
"O  c #4F3616",
"+  c #503C28",
"@  c #5D421A",
"#  c #614A15",
"$  c #675410",
"%  c #6A5310",
"&  c #776515",
"*  c #7F6D1E",
"=  c #56442F",
"-  c #5B4429",
";  c #564430",
":  c #5C4631",
">  c #6E5C25",
",  c #61503B",
"<  c #725A37",
"1  c #7F7122",
"2  c #966B0B",
"3  c #9D6E0B",
"4  c #837418",
"5  c #8B7719",
"6  c #8A7A18",
"7  c #A3760C",
"8  c #A87609",
"9  c #A67A0F",
"0  c #AB7C0B",
"q  c #B37E0A",
"w  c #AC7B13",
"e  c #98732D",
"r  c #9D7935",
"t  c #8D811A",
"y  c #93861B",
"u  c #B5820B",
"i  c #B9830A",
"p  c #BC880A",
"a  c #BC8611",
"s  c #BC8B16",
"d  c #B48119",
"f  c #B28212",
"g  c #9D9626",
"h  c #A5972A",
"j  c #BF912D",
"k  c #AE8237",
"l  c #BE8F39",
"z  c #B28C36",
"x  c #BB9139",
"c  c #B9B32F",
"v  c #C18D0B",
"b  c #CD970E",
"n  c #C68E13",
"m  c #C49617",
"M  c #CC9313",
"N  c #C79619",
"B  c #D09615",
"V  c #D59A15",
"C  c #D99E16",
"Z  c #DD9F18",
"A  c #DDA415",
"S  c #DEA119",
"D  c #D4A319",
"F  c #D5B31E",
"G  c #E1A516",
"H  c #E4AD15",
"J  c #E8AB17",
"K  c #E2A519",
"L  c #E7A919",
"P  c #ECAE1B",
"I  c #E5B117",
"U  c #E9B715",
"Y  c #E7B816",
"T  c #E9BA17",
"R  c #E7B618",
"E  c #EEB11B",
"W  c #EDBF1B",
"Q  c #F3B41B",
"!  c #F4BD1B",
"~  c #FBBC1D",
"^  c #C69826",
"/  c #CE9F2B",
"(  c #D79E23",
")  c #C79936",
"_  c #CD9A3E",
"`  c #D0A120",
"'  c #D8A62D",
"]  c #D7AD29",
"[  c #C3B52A",
"{  c #D9B321",
"}  c #DEAB3D",
"|  c #E2AE29",
" . c #E1B522",
".. c #F3BB21",
"X. c #FABC20",
"o. c #FABE28",
"O. c #ECB530",
"+. c #ECB83A",
"@. c #F2B536",
"#. c #EFC017",
"$. c #EFC118",
"%. c #F3C21A",
"&. c #FDC21D",
"*. c #FBCB1E",
"=. c #C8C32C",
"-. c #D6CA29",
";. c #CEC631",
":. c #CFC933",
">. c #D8D533",
",. c #D4D03D",
"<. c #E8CF2D",
"1. c #E9C325",
"2. c #FEC421",
"3. c #FECB22",
"4. c #FACB2D",
"5. c #EED72D",
"6. c #F7D727",
"7. c #FED325",
"8. c #FEDB26",
"9. c #FED728",
"0. c #FEDB29",
"q. c #F9C632",
"w. c #F9CE32",
"e. c #FBCE39",
"r. c #E1DF34",
"t. c #E1DE38",
"y. c #F7DD38",
"u. c #FEE329",
"i. c #F4EB2E",
"p. c #FEEB2C",
"a. c #FEF32D",
"s. c #FEFA2F",
"d. c #E5E230",
"f. c #E8E632",
"g. c #F9ED35",
"h. c #FCE93C",
"j. c #F3F234",
"k. c #FCF531",
"l. c #FFFE33",
"z. c #F6F33F",
"x. c #FEFF3A",
"c. c #948050",
"v. c #B68941",
"b. c #BF9044",
"n. c #B7975F",
"m. c #C79A44",
"M. c #C39957",
"N. c #D1A34F",
"B. c #D4A341",
"V. c #DDAD58",
"C. c #E2AF48",
"Z. c #E6B143",
"A. c #EBB443",
"S. c #E3BD46",
"D. c #F1B948",
"F. c #EEBD62",
"G. c #E5C44A",
"H. c #F9C753",
"J. c #FAD65E",
"K. c #FAD957",
"L. c #F4E348",
"P. c #F8E94E",
"I. c #FAE845",
"U. c #FAF446",
"Y. c #E7E35F",
"T. c #F9EA5A",
"R. c #FBF755",
"E. c #FAD065",
"W. c #FCFB63",
"Q. c #F8F76D",
"!. c #FCFB6A",
/* pixels */
"                                                                ",
"                                                                ",
"                                                                ",
"                                                                ",
"                                                                ",
"                                                                ",
"                  Q.R.p.g.8.6.0.7.w.E.                          ",
"              Y.x.l.k.k.p.u.u.0.0.0.9.7.e.                      ",
"            ,.l.l.s.s.s.p.p.u.u.0.0.0.0.9.3.E.                  ",
"          c x.x.l.l.l.s.p.p.u.u.0.0.9.0.0.0.3.                  ",
"        1 x.x.x.l.l.s.s.a.p.u.u.0.0.9.7.9.7.7.o.                ",
"      : :.x.l.l.l.l.l.p.g.<.F { 1.9.0.7.7.7.3.*.F.              ",
"      - z.x.x.l.l.l.l.U.      b.q N 3.7.3.3.3.3.+.              ",
"      * x.x.x.x.l.l.k.          ) q D 3.3.3.3.2.%.              ",
"      y x.x.x.x.x.s.!.            p w 2.3.2.2.Q %.              ",
"      h x.x.x.x.l.s.R.            f 9 ..2.2.2.Q #.              ",
"      t x.x.x.l.l.a.!.            w 3 ..2.2.~ E !               ",
"      # x.x.x.x.l.a.W.            8 3 2.2.&.~ E W               ",
"      X t.x.x.l.l.l.g.          n.q N 2.~ 2.~ %.|               ",
"      = g x.l.x.l.l.k.U.        d d 2.2.2.X.~ %.V.              ",
"        = >.x.l.l.l.l.i.P.L.G.]  .3.2.2.~ &.&.|                 ",
"          > r.x.l.l.k.s.a.u.u.8.9.3.2.2.X.&.O.                  ",
"            c.;.k.l.s.a.a.u.u.8.7.3.2.~ ~ D.                    ",
"              r [ l.s.s.a.p.u.8.7.3.2.X.@.                      ",
"          < 6 d.l.s.s.s.a.u.8.8.3.2.~ X.Q P A.                  ",
"        @ 6 j.x.l.s.s.s.p.8.9.7.3.2.2.~ Q ~ ! V                 ",
"      - & j.l.s.s.s.s.p.y.K.  G.` ..X.Q Q Q ~ C _               ",
"      o >.l.l.l.s.s.a.I.          2 K Q Q Q Q C V               ",
"    , 4 l.l.l.s.s.a.g.            e 2 P P Q E C V _             ",
"    O =.l.l.l.s.a.i.T.              3 s L P J B M V             ",
"    . f.l.l.s.s.a.u.                7 9 K L Z B n V             ",
"    . x.s.s.s.s.a.0.                0 7 G G C M n G             ",
"    % x.s.s.a.p.p.9.                0 7 Z S V M n A             ",
"    $ l.l.a.p.p.p.6.              z i 0 C A V M M A             ",
"    X l.s.a.p.u.u.6.              x i f V C C M A H             ",
"    + i.s.a.p.u.0.9.K.          m.v u M B C C M Y /             ",
"      -.a.p.u.u.8.7.4.        N.b p a V B V B a T z             ",
"      h p.u.u.8.7.7.3.2.} ' A A M n V V M M M n D               ",
"        5.u.0.8.7.7.3.&.~ E K K S A V B B M n T k               ",
"          0.8.7.3.*.2.~ ~ Q P K S V V V B B U j                 ",
"            7.3.3.&.&.~ ~ P L G C V V B M T ^                   ",
"              q.2.&.&.~ ~ Q P J L G G I I )                     ",
"                H.X.~ &.&.~ ~ %.&.%.R / M.                      ",
"                      A.A.A.Z.Z.B.m.                            ",
"                                                                ",
"                                                                ",
"                                                                ",
"                                                                ",
"                                                                ",
"                                                                "
};
