/* XPM */
static char *d9bf2188056a4d98dc3734958cce8703hJIHZ1K5UBxScQiR[] = {
/* columns rows colors chars-per-pixel */
"33 50 174 2 ",
"   c None",
".  c #583909",
"X  c #563B1C",
"o  c #563E25",
"O  c #71560B",
"+  c #66571A",
"@  c #5D472D",
"#  c #5D4833",
"$  c #66543F",
"%  c #645343",
"&  c #6A5848",
"*  c #6B5744",
"=  c #976A07",
"-  c #976909",
";  c #9E6C09",
":  c #9F710B",
">  c #A47409",
",  c #A7780B",
"<  c #AC7A0A",
"1  c #B17E0A",
"2  c #AD7C12",
"3  c #A47713",
"4  c #B17E1B",
"5  c #897B22",
"6  c #847B30",
"7  c #8D734D",
"8  c #82796F",
"9  c #927F68",
"0  c #817972",
"q  c #99811D",
"w  c #BA860D",
"e  c #AE8215",
"r  c #B68411",
"t  c #BE8C14",
"y  c #B58915",
"u  c #A39C27",
"i  c #B59C20",
"p  c #B0853F",
"a  c #B28533",
"s  c #B8A724",
"d  c #B3AC2C",
"f  c #BCB92B",
"g  c #C8930D",
"h  c #C58D13",
"j  c #C49017",
"k  c #CD9414",
"l  c #CE9D1B",
"z  c #D19715",
"x  c #D49A15",
"c  c #D99D16",
"v  c #D39C19",
"b  c #DA9E18",
"n  c #DCA216",
"m  c #DCA018",
"M  c #DAAE1D",
"N  c #DBB51E",
"B  c #E2A616",
"V  c #E2AD15",
"C  c #E3A519",
"Z  c #E6A919",
"A  c #EBAD1A",
"S  c #E6B217",
"D  c #ECB515",
"F  c #EFBC15",
"G  c #E6B51C",
"H  c #EDB21A",
"J  c #EABC1E",
"K  c #F3B51B",
"L  c #F8B71D",
"P  c #F4BA1B",
"I  c #FCBD1D",
"U  c #C79734",
"Y  c #D09C35",
"T  c #CCB023",
"R  c #DFBF23",
"E  c #C3BD31",
"W  c #E6B727",
"Q  c #EABA21",
"!  c #E5B62A",
"~  c #FFBF20",
"^  c #EBBA37",
"/  c #F4BD38",
"(  c #EEC11F",
")  c #F3C116",
"_  c #FEC21E",
"`  c #F6C81A",
"'  c #FAC91D",
"]  c #D2CE33",
"[  c #D6D334",
"{  c #DEDA38",
"}  c #FEC521",
"|  c #F2CB26",
" . c #FFCB22",
".. c #F2C420",
"X. c #E6D32C",
"o. c #F0D427",
"O. c #FED325",
"+. c #FFDA27",
"@. c #F7DC28",
"#. c #FEDB29",
"$. c #ECC73A",
"%. c #EDD33D",
"&. c #FAD23B",
"*. c #EAE22F",
"=. c #FEE32A",
"-. c #FEEB2C",
";. c #FEF32E",
":. c #FFFB2E",
">. c #EEED37",
",. c #E9E73A",
"<. c #EDEB39",
"1. c #F8EE3B",
"2. c #F2EF3B",
"3. c #FDF632",
"4. c #FEFE34",
"5. c #FFFF3B",
"6. c #90845F",
"7. c #B78E45",
"8. c #B89256",
"9. c #BD9559",
"0. c #BD995B",
"q. c #B49154",
"w. c #968E6B",
"e. c #A48A6B",
"r. c #A9A37B",
"t. c #EFBE4D",
"y. c #E5BA4A",
"u. c #C1A47A",
"i. c #DAB877",
"p. c #E2BB61",
"a. c #D9D54C",
"s. c #D9C053",
"d. c #F1C344",
"f. c #F2C54A",
"g. c #F8CA4C",
"h. c #F9D045",
"j. c #F4C051",
"k. c #F6C757",
"l. c #F5D655",
"z. c #F7EC48",
"x. c #FAEF4C",
"c. c #F8F540",
"v. c #FCFB46",
"b. c #FBF359",
"n. c #ECC26A",
"m. c #F8D167",
"M. c #F5D064",
"N. c #E6C577",
"B. c #F0C477",
"V. c #F2CA73",
"C. c #F8E16F",
"Z. c #F7EC6C",
"A. c #F3E976",
"S. c #F7F276",
"D. c #928B85",
"F. c #D2B68C",
"G. c #C9B89A",
"H. c #D4BA90",
"J. c #E0BE81",
"K. c #CFBDA1",
"L. c #DEC087",
"P. c #E8C387",
"I. c #EDC983",
"U. c #F1CD89",
"Y. c #E0C6A3",
"T. c #F0D7A9",
"R. c #E6E1A9",
"E. c #F7ECA7",
"W. c #EFE1BF",
"Q. c #F1F0BD",
"!. c #DCD6C5",
"~. c #EEE3CE",
"^. c #E8E7E2",
"/. c #EBECEA",
/* pixels */
"                                                                  ",
"                                                                  ",
"                                                                  ",
"                                                                  ",
"                                                                  ",
"                            E.E.                                  ",
"                    Q.S.x.-.=.@.#.@.&.M.  /.                      ",
"                  S.4.3.3.;.-.=.#.#.#.#.O.m.                      ",
"              r.>.4.4.4.3.;.-.=.=.#.#.#.#.#.&.                    ",
"            w.>.5.4.4.:.:.;.-.-.=.#.#.O.#.#.O.&.                  ",
"          8 { 4.4.4.4.4.3.:.-.-.=.#.#.#.O.#.O.#.k.                ",
"          u 5.5.4.4.4.4.3.3.-.X.o.=.#.#.O.O.O.O. .U.              ",
"        & ,.5.5.5.4.4.4.3.Z.  9.< y | O.O.O. . . ...              ",
"        5 5.5.5.4.4.4.:.          4 3 |  . . . .} } n.            ",
"      % E v.5.5.5.4.4.b.          0.1 e  . .} } I K f.^.          ",
"      $ { 5.5.5.4.4.4.S.            7., Q  .} } ~ A )             ",
"      % ,.5.5.5.4.4.3.              q.< l } } _ L Z P P.          ",
"      X c.5.5.5.5.4.3.                < h } } _ L A H I.          ",
"      . v.5.5.5.4.4.3.                < 2 } I _ K Z A d.          ",
"      o 2.5.5.5.5.4.3.                , 3 I ~ I K C A ..          ",
"      # ,.5.5.4.4.4.3.                : r I I _ K B P `           ",
"      % [ 5.5.5.4.4.4.Z.            7.; v I I _ A A P )           ",
"        d 5.5.4.4.4.4.z.            a ; H L L L A A H F           ",
"        + 5.5.4.4.4.4.;.A.        0.< h } ~ L L P K C D           ",
"        D.[ 5.4.4.4.:.:.1.      9.3 t } I L P I L A B D           ",
"          6 5.4.4.4.:.:.:.;.%.N M Q } _ I L K _ D c B F           ",
"            f 4.4.:.4.:.;.-.=.+.O. .} _ I K P I A x B F           ",
"              ] 4.:.:.:.;.=.+.+.O. .} _ P B A L Z x c F           ",
"                a.4.:.;.-.=.+.O. . .} K h v A P C k z G           ",
"                  R.b.-.-.+.+.O. .' t.y - m Z H n k k W           ",
"                        C.l.h.f.V.T.  < - C Z Z c k k p.          ",
"                                    G.< ; C C n k k c J.          ",
"                                    u.1 2 C n n k h V F.          ",
"                w.7 e.              9.1 h b c c z k S             ",
"        @ . O q i T ( $.          K.w < x c x n x x ^             ",
"        % *.;.-.=.+.@.O.          U w r b x x n k V L.            ",
"        0 X.-.-.=.+.+. .k.    Y.Y g r c c z z n h G               ",
"          s -.=.+.+.O.O. .G x n x k b b x k k k n i.              ",
"          6.=.#.+.+.O.' } ~ L K A C b c z z z x !                 ",
"            s.#.O.O. . ._ I L H Z C b x x z z Q                   ",
"            !.&.O.'  ._ ~ I K A B n c c x k Q H.                  ",
"              W.g. ._ _ I I P K A Z B B S y.                      ",
"                ~.f.} _ _ _ I I I ) ' ( i.                        ",
"                      B.k./ P ^ t.N.                              ",
"                                                                  ",
"                                                                  ",
"                                                                  ",
"                                                                  ",
"                                                                  ",
"                                                                  "
};
