/* XPM */
static char *_46af835c0c64433973f5a48726ceecedTkMOv1HWL6BRpKR[] = {
/* columns rows colors chars-per-pixel */
"64 64 176 2 ",
"   c None",
".  c #680D00",
"X  c #691205",
"o  c #6A1408",
"O  c #6A1B13",
"+  c #711E13",
"@  c #6D2101",
"#  c #732D05",
"$  c #763802",
"%  c #6D251D",
"&  c #762919",
"*  c #7E3F18",
"=  c #7F3921",
"-  c #8D6005",
";  c #986904",
":  c #9F6F15",
">  c #A77C06",
",  c #A37A18",
"<  c #804B32",
"1  c #976A28",
"2  c #815756",
"3  c #9B7456",
"4  c #896463",
"5  c #90706E",
"6  c #AE8A0B",
"7  c #A8820D",
"8  c #B28504",
"9  c #B18C0B",
"0  c #B88906",
"q  c #B4910D",
"w  c #B9960E",
"e  c #BF9E0F",
"r  c #AE8A10",
"t  c #B48919",
"y  c #BA9714",
"u  c #BC8E2A",
"i  c #BF9120",
"p  c #BF9128",
"a  c #BB8E35",
"s  c #B98C3C",
"d  c #BC9C32",
"f  c #C39501",
"g  c #CB9C01",
"h  c #C29F0E",
"j  c #C59904",
"k  c #C09F10",
"l  c #C59718",
"z  c #D4A402",
"x  c #DAAB01",
"c  c #D4A80B",
"v  c #DCB80E",
"b  c #C0A010",
"n  c #CBAB11",
"m  c #C6A41A",
"M  c #CFB012",
"N  c #D2B415",
"B  c #D9BB15",
"V  c #D4B51A",
"C  c #DAB717",
"Z  c #E3B401",
"A  c #ECBD00",
"S  c #EABC15",
"D  c #E5B713",
"F  c #C39524",
"G  c #CB9E26",
"H  c #C2942A",
"J  c #C39432",
"K  c #C5A522",
"L  c #C1A22C",
"P  c #D0B123",
"I  c #CDAE36",
"U  c #D2B530",
"Y  c #DEC115",
"T  c #F4C400",
"R  c #F7C800",
"E  c #FFCF00",
"W  c #FFCF0C",
"Q  c #F4C60F",
"!  c #FFD104",
"~  c #FFD50A",
"^  c #FFD80E",
"/  c #E2C516",
"(  c #E7CA17",
")  c #EACD17",
"_  c #EBC710",
"`  c #FECF15",
"'  c #F7C919",
"]  c #EED218",
"[  c #FED214",
"{  c #FFDC13",
"}  c #F3D719",
"|  c #FFD31B",
" . c #F6DA1A",
".. c #FADE1B",
"X. c #FFE017",
"o. c #FFE41B",
"O. c #E9CE28",
"+. c #FCDF2A",
"@. c #F7D623",
"#. c #E2C732",
"$. c #E3C835",
"%. c #FCDC38",
"&. c #FFE423",
"*. c #FFE52B",
"=. c #FFE534",
"-. c #FFE639",
";. c #B48A44",
":. c #B18745",
">. c #B4954A",
",. c #AD865A",
"<. c #AE905F",
"1. c #B09159",
"2. c #9B807F",
"3. c #AB8867",
"4. c #B38D65",
"5. c #B38F6F",
"6. c #AD9067",
"7. c #AA8D79",
"8. c #AD9175",
"9. c #AE937B",
"0. c #B29373",
"q. c #B39975",
"w. c #D2B644",
"e. c #FFB67A",
"r. c #FFD84B",
"t. c #FFE645",
"y. c #FFE74E",
"u. c #FFE755",
"i. c #FFE75A",
"p. c #FFE85C",
"a. c #FFC56E",
"s. c #FFE862",
"d. c #FFEA6C",
"f. c #FFEA74",
"g. c #FFEC7E",
"h. c #A58F8E",
"j. c #AD9586",
"k. c #A7908B",
"l. c #B19889",
"z. c #AE9A99",
"x. c #AC9791",
"c. c #B29C94",
"v. c #B19F9B",
"b. c #B4A29B",
"n. c #BCA69D",
"m. c #B4A3A1",
"M. c #BAA9A5",
"N. c #BBADAA",
"B. c #BFB2B2",
"V. c #FFA787",
"C. c #C1B2AF",
"Z. c #C2B5B3",
"A. c #C5BABA",
"S. c #C8BEBD",
"D. c #FFEC83",
"F. c #FFED8C",
"G. c #FFEF93",
"H. c #FFEF99",
"J. c #FFF09D",
"K. c #FFF1A4",
"L. c #FFF3AC",
"P. c #FFF4B4",
"I. c #FFF6BB",
"U. c #CDC4C3",
"Y. c #D0C7C6",
"T. c #D3CBCB",
"R. c #D7D1D0",
"E. c #DBD5D5",
"W. c #DED8D7",
"Q. c #DED9D9",
"!. c #E1DDDD",
"~. c #FFF7C2",
"^. c #FFF8C7",
"/. c #FFF9CC",
"(. c #FFFAD1",
"). c #E6E3E3",
/* pixels */
"                                                                                                                                ",
"                                                                                                                                ",
"                                                                                                                                ",
"                                                                                                                                ",
"                                                                                                                                ",
"                                                                                                                                ",
"                                                                                                          T.m.z.z.Z.Q.          ",
"                                                                                                        E.X o O + X o 4 Y.      ",
"                                                                                                        N.7 & + o . . . O Z.    ",
"                                                                                                        b.+.K * . . . . . 4     ",
"                                                                                                        9.&.&. .B f 0 f z k.    ",
"                                                                                                      ).1 &.o.o.o.! ! E x U.    ",
"                                                                                                      N., o.o.o.X.E E E ; Y.    ",
"                                                                                                      1.9 o.o.o.{ E E x 5       ",
"                                                                                                    Y.V q o.o.o.~ ! R 3 !.      ",
"                                                                                            Y.9.d I y N 7 o.o.o.! E p Q.        ",
"                                                                                        U.6.#.=.-.$.6 B } o.o.X.! Z Z.          ",
"                                                                                    ).j.N o.s.D.U m o.o.o.o.o.{ T 7.            ",
"                                                                                  U.>.} =.H.P.w.n o.o.o.o.o.o.~ Z Z.            ",
"                                                                                b.V o.d.I.L.#.e o.G.u.&.o.o.X.! E ;.            ",
"                                                                            !.6.] =.J.(.J.@.6 o.f.P.&.o.o.o.{ ! E x R.          ",
"                                                                          Z.L X.d.I.(.D.o.q } y.~.p.o.o.o.o.~ E E T Z.          ",
"                                                                      E.8./ -.K.(.~.d.o.M B *.P.K.o.o.o.o.o.! E E R v.          ",
"                                                                  ).b.K ..o.i.(.L.-.o.] w o.G.~.t.o.o.o.o.{ ! ! E E c.          ",
"                                                              ).M.d } o.o.&.*.-.=.o.X.6  .d./.F.o.o.o.o.o.~ E E E E x.          ",
"                                                          A.9.K } o.o.o.o.*.o.&.o.o.n Y t.~.I.*.o.o.o.o.o.E E E E E c.          ",
"                                                  E.N.q.K ( o.o.o.o.o.o.*.*.&.o.o.( e *.I./.s.o.o.o.o.o.^ E E E E R m.          ",
"                                        Q.U.b.q.d B } o.o.o.o.o.o.o.o.o.*.*.o.o. .6 X.g.(.F.o.o.o.o.o.o.! E E E E T B.          ",
"      U.m.N.A.U.Y.R.T.T.Y.A.Z.M.c.q.>.L N ( ..-.f.p.o.o.o.o.o.o.o.o.o.o.o.o.~ ! q ] o.=.d.o.o.o.o.o.o.{ E E E E E A Y.          ",
"    Z.o . . - ( / Y / / ( ) } ..&.*.-.s.D.K.I.I.J.u.o.o.o.o.o.o.o.o.o.o.~ o.~ f Y o.o.o.o.o.o.o.o.o.o.! E E ! E E z E.          ",
"    4 X . . > o.o.&.J.P.D.u.I.I.I.^./.^.P.G.s.&.o.o.o.o.o.o.o.o.o.o.o.o.o.X.M M o.o.o.o.o.o.o.o.o.o.{ ! E E E E E i             ",
"    5 o . . n o.o.o.J.I.F.u.P.L.J.F.d.-.o.o.o.o.o.o.o.o.o.o.o.o.o.o.o.o.~ g n o.o.o.o.o.o.o.o.o.o.X.! ! E E E E E 4.            ",
"    U.. X $ } o.o.o.o.o.o.o.o.o.o.o.o.o.o.o.o.o.o.o.o.o.o.o.o.o.o.o.o.o.b M o.o.o.o.o.o.o.^ ^ o.{ ! E E E E E ! R c.            ",
"      2 @ c o.o.o.o.o.o.o.o.o.o.o.o.o.o.o.o.o.o.o.o.o.o.o.o.o.o.o.o...q Y o.o.o.o.o.o.o.X.! ~ ^ ! E E E E E E E Z T.            ",
"      S.g E ! X.o.{ { o.o.o.o.o.o.o.o.o.o.o.o.o.o.o.o.o.o.o.o.o.o.( 6 ] o.o.o.o.o.o.o.~ X.X.{ E E E E E E E E E p               ",
"        3.E E E ~ ! ! { { o.o.o.o.o.o.o.o.o.o.o.o.o.o.o.o.o.o.o.n b X.&.o.o.o.o.o.o.o.o.X.~ ! ! E E E E E E E E j.              ",
"        E.c E E ! E ! { ~ X.o.o.o.o.o.o.o.o.o.o.o.o.*.*.o.X._ 6 / o.o.o.o.o.o.o.o.o.o.o.~ E E E E E E E E E E Z S.              ",
"          c.A E E E E E ! ^ { o.o.o.o.o.o.o.o.o.o.&.+...E f e @.t.o.o.o.o.o.o.o.o.o.o.o.{ ~ E E E E E E E E E s                 ",
"            ,.E E E E E E E ! E ! ! ~ ~ ~ ~ ~ ! [ | ~ x 8 ( t.L.G.o.o.o.o.o.o.o.o.o.o.o.o.^ E E E E E E E E T N.                ",
"            E.a E E E E E E E E ! ! ! ! E E E [ ` Z 8 C &.D.I.g.o.o.o.o.o.o.o.o.o.o.o.o.{ ! E E E E ! E E E F                   ",
"              T.H ! ! E E E E E E E E E E E | D 6 n ..i.P.I.i.o.o.o.o.o.o.o.o.o.o.o.o.{ ! E E E E E E E E R n.                  ",
"                Y.s R ! E E E E E E E ! E C t P o.y.K./.J.-.o.o.o.o.o.o.o.o.o.o.o.&.{ ! E E E E E E E ! E J !.                  ",
"                  E.,.A E ! E E E E T g t C +.s.K./.I.f.o.o.o.o.o.o.o.o.o.o.o.o.o.{ ! E E E E E E E E E S C.                    ",
"                      m.F T E R x 8 y O.-.=.P.(.^.F.=.o.o.o.o.o.o.o.o.o.o.o.o.o.v T E E E E E E E E E ` 4.                      ",
"                        Y.< > w Y ..p.P.P.*.L.G.-.o.o.o.o.o.o...w  .o.o.o.o.o.E # f E E E E E E E E ! G E.                      ",
"                      h.O . ; o.o.o.F./.K.o.o.o.o.o.o.o.o.o.o.) @ / o.o.o. .! E x T ` | E E E E E E Z Z.                        ",
"                    U.. . . # =.*.&.o.&.o.o.o.o.o.o.o.o.o.o.o.o.] o.o.X.f z E E ! E e.V.` E W ` | Q j.                          ",
"                    B.. . . & @.&.-.o.o.o.o.o.o.o.o.o.o.o.&.e.a.o.o.^ ! ! ! E ! E E E W E E | W Q 5.                            ",
"                    Q.% . . = -.-.-.o.o.X.o.o.o.o.o.o.o.o.o.r.%.^ ! E E E E E E E E E E E E @.' 4.                              ",
"                      S.O . : %.-.&.X.! ! { ! { o.o.o.o.{ { ~ E E E E E E E E E E E E E E E Q 5.                                ",
"                        A.% Z E E ~ ~ E ! ^ ^ { { ~ ~ ! E E E E E E E E ! E E E E E E E E Z j.                                  ",
"                          A.p E E E E E ! E E E E E E E E E ! E E E E E E E E E E E E ` G Z.                                    ",
"                            R.:.R E E E E E E E E E E E E E E E E E E ! E E ! E E E S 4.!.                                      ",
"                                7.Z E E E E E E E E E E E E E E E E E E E E E E A s Z.                                          ",
"                                  S.a T E E W E ! E E E ! E E E E E E E ! E Z ;.Z.).                                            ",
"                                      b.a A E E E E E E E E E E E E E A l 3.U.                                                  ",
"                                          B.9.l x T R E E E T A z u 8.Z.Q.                                                      ",
"                                                T.Z.M.x.z.z.N.U.E.                                                              ",
"                                                                                                                                ",
"                                                                                                                                ",
"                                                                                                                                ",
"                                                                                                                                ",
"                                                                                                                                ",
"                                                                                                                                "
};
