/* XPM */
static char *fddf12d2ec5348ba98091fc805339179xWUtzV0eyDZ2e5DH[] = {
/* columns rows colors chars-per-pixel */
"64 64 52 1 ",
"  c None",
". c #0F8558",
"X c #108559",
"o c #118659",
"O c #12865A",
"+ c #13875B",
"@ c #14875B",
"# c #15885C",
"$ c #17895D",
"% c #198A5F",
"& c #1B8C60",
"* c #1C8C61",
"= c #1D8D61",
"- c #1E8D62",
"; c #208D63",
": c #228E65",
"> c #248F66",
", c #269067",
"< c #289169",
"1 c #2B936B",
"2 c #2C936C",
"3 c #2E946D",
"4 c #31966F",
"5 c #339770",
"6 c #359872",
"7 c #389A74",
"8 c #3A9B75",
"9 c #3B9B76",
"0 c #3D9C77",
"q c #419D7A",
"w c #439E7B",
"e c #449F7C",
"r c #47A17E",
"t c #4BA381",
"y c #4EA483",
"u c #50A584",
"i c #52A685",
"p c #54A787",
"a c #57A989",
"s c #5AAB8B",
"d c #5CAC8C",
"f c #62AE90",
"g c #63AE91",
"h c #6AB295",
"j c #6CB397",
"k c #6FB599",
"l c #71B69A",
"z c #77B99F",
"x c #79BAA0",
"c c #7DBCA3",
"v c #85C0A8",
"b c #8EC4AE",
/* pixels */
"                                                                ",
"                                                                ",
"  %#####################################@##@#@#@#@###########%  ",
"  #.......................................X.X.X....o.........#  ",
"  #..........................................................#  ",
"  #..........................................................#  ",
"  #..........................................................#  ",
"  #...........................................XX.............#  ",
"  #...........@@@@@@@@@@@@@@@@@@@@@@@@#####%%#%##%...........#  ",
"  #..........X                                    #..........#  ",
"  #..........X                                    =..........#  ",
"  #..........X                     dra            ,..........#  ",
"  #..........X                    1....r          ;X.........#  ",
"  #..........X                   w......d         ;..........#  ",
"  #..........X                   XX.....w         ;..........#  ",
"  #...........                   .X.....#         ;..........#  ",
"  #...........                   X......w         ;..........#  ",
"  #...........                   9......i         ;..........#  ",
"  #...........                    6....5          ;..........#  ",
"  #...........                     d1w            ;..........#  ",
"  #...........                                    ;..........#  ",
"  #...........        3#@@@@@@@@o@@X#0            ;..........#  ",
"  #...........       5............X...5           ;..........#  ",
"  #...........      i..................6          ;..........#  ",
"  #...........      #X..563,=...........d         ;..........#  ",
"  #...........     r...r    t...........oz        ;..........#  ",
"  #...........    gX..#     3............=        ;..........#  ",
"  #...........    5.XXi    h.........,,...5       ;..........#  ",
"  #...........   a...1     0.........g ,o..5x    b%..........#  ",
"  #...........   ,...g     .........;   #....................#  ",
"  #...........   i..4     7.........i   aX...................#  ",
"  #...........    ry      X........%     d...................#  ",
"  #...........           e........Xw      soX#X@X4@..........#  ",
"  #...........           #........#               ;..........#  ",
"  #...........           X........w               ;..........#  ",
"  #...........           .........3               ;..........#  ",
"  #...........          d....3.....p              ;..........#  ",
"  #...........          j....r3....3              ;..........#  ",
"  #...........          p....  X....s             ;..........#  ",
"  #...........          6....  3....4             ;..........#  ",
"  #...........          6....   .....g            ;..........#  ",
"  #...........          g....   3....5            ;..........#  ",
"  #.........X%          y...@   p.....g           ;..........#  ",
"  #.......%r            3...#    3....6           ;..........#  ",
"  #.....X3  w=#%%%==;;;=....&    g.....g          ;..........#  ",
"  #.....# s%..X.............;     7....7          ;..........#  ",
"  #.....w #.................1     j.....h         ;..........#  ",
"  #....X p.................Xg      w....9         ;..........#  ",
"  #....& vcccccxlgga72             l.....k        ;..........#  ",
"  #....#hhgdap                      0....0        ;..........#  ",
"  #.........XX                      l.....l       ;..........#  ",
"  #..........X                       0....w       ;..........#  ",
"  #..........o                       k.....h      ;..........#  ",
"  #..........X                        5....3      ;..........#  ",
"  #.........Xo                         3....i     ;..........#  ",
"  #..........o                          dhggl     ;..........#  ",
"  #..........X                                    ;..........#  ",
"  #..........,                        5%%=;g      #..........#  ",
"  #.........,                        7...Xh      6...........#  ",
"  #........,                        5...@0      4............#  ",
"  #.......:                        1...Xa      6XX...........#  ",
"  %#######;44444444444444444444444=###@%544444,#@##@#########%  ",
"                                                                ",
"                                                                "
};
