/* XPM */
static char *b54b5f6c4d9440f5f6c8f6714fe78e97t1Ffy2E7wHhgCelD[] = {
/* columns rows colors chars-per-pixel */
"64 64 232 2 ",
"   c None",
".  c #2A1E17",
"X  c #321F17",
"o  c #2C231C",
"O  c #27231C",
"+  c #32241B",
"@  c #3B2419",
"#  c #3A2319",
"$  c #2E2922",
"%  c #2D2720",
"&  c #322B24",
"*  c #372C27",
"=  c #37322D",
"-  c #3D3635",
";  c #432519",
":  c #4A261A",
">  c #4C291C",
",  c #47271B",
"<  c #542A1C",
"1  c #5C2C1C",
"2  c #5A2717",
"3  c #5E311F",
"4  c #642D1C",
"5  c #6B2E1A",
"6  c #682816",
"7  c #732E1A",
"8  c #7C2E18",
"9  c #64301E",
"0  c #6C311D",
"q  c #73321D",
"w  c #7C341D",
"e  c #44322A",
"r  c #593224",
"t  c #483A37",
"y  c #533025",
"u  c #633424",
"i  c #6D3521",
"p  c #6A382E",
"a  c #743621",
"s  c #7C3720",
"d  c #743925",
"f  c #7C3923",
"g  c #793D28",
"h  c #6D362A",
"j  c #49413D",
"k  c #56423D",
"l  c #5C422C",
"z  c #78412D",
"x  c #7C4637",
"c  c #714C3A",
"v  c #453E41",
"b  c #454545",
"n  c #4D4D4D",
"m  c #4B4444",
"M  c #584945",
"N  c #545454",
"B  c #5B5B5B",
"V  c #5C5655",
"C  c #58504E",
"Z  c #764D44",
"A  c #7D574A",
"S  c #635A58",
"D  c #765C55",
"F  c #66504A",
"G  c #746359",
"H  c #5F5B60",
"J  c #605C61",
"K  c #656564",
"L  c #6B6B6B",
"P  c #6C6667",
"I  c #776B68",
"U  c #737373",
"Y  c #7C7C7C",
"T  c #7B7675",
"R  c #7A716B",
"E  c #83351D",
"W  c #8A351C",
"Q  c #83391F",
"!  c #8C3A1E",
"~  c #99361A",
"^  c #933A1E",
"/  c #9B3A1C",
"(  c #96351B",
")  c #A23B1C",
"_  c #AB3E1C",
"`  c #B23D19",
"'  c #843B23",
"]  c #8B3C23",
"[  c #843924",
"{  c #933E22",
"}  c #993E20",
"|  c #A43E20",
" . c #9E421E",
".. c #AC421E",
"X. c #B4451E",
"o. c #8F4226",
"O. c #84422B",
"+. c #8B442B",
"@. c #954124",
"#. c #9B4325",
"$. c #94452A",
"%. c #9B462B",
"&. c #9B4A2C",
"*. c #954A2E",
"=. c #894935",
"-. c #9D4D31",
";. c #944C35",
":. c #995238",
">. c #8D513F",
",. c #A44223",
"<. c #AD4523",
"1. c #A44C2C",
"2. c #AB4B2C",
"3. c #A94827",
"4. c #B34622",
"5. c #B34A25",
"6. c #B24C2C",
"7. c #BA4D27",
"8. c #BB532C",
"9. c #B75229",
"0. c #A44D32",
"q. c #A45435",
"w. c #AA5234",
"e. c #AB5A3B",
"r. c #AB5839",
"t. c #BD5A35",
"y. c #B75837",
"u. c #B35130",
"i. c #B8613E",
"p. c #C3572B",
"a. c #C6653D",
"s. c #854F43",
"d. c #9C5A44",
"f. c #975B49",
"g. c #875C53",
"h. c #835A4F",
"j. c #A55C45",
"k. c #B75D43",
"l. c #876459",
"z. c #9A6959",
"x. c #90654A",
"c. c #AD6243",
"v. c #AA664B",
"b. c #B2654A",
"n. c #B76446",
"m. c #A66854",
"M. c #B76D55",
"N. c #BD745A",
"B. c #B87457",
"V. c #B87051",
"C. c #896C67",
"Z. c #9A7569",
"A. c #847D7C",
"S. c #877977",
"D. c #947A76",
"F. c #936E6A",
"G. c #A87564",
"H. c #B77967",
"J. c #AA7E72",
"K. c #C26946",
"L. c #C6724B",
"P. c #C46D51",
"I. c #C67656",
"U. c #D17B57",
"Y. c #C57D67",
"T. c #9A867D",
"R. c #AB806A",
"E. c #B88867",
"W. c #A98775",
"Q. c #BB9379",
"!. c #B78876",
"~. c #BA805A",
"^. c #CE855D",
"/. c #C78667",
"(. c #D48869",
"). c #C78A76",
"_. c #C99879",
"`. c #D89578",
"'. c #D3916F",
"]. c #D5A17A",
"[. c #E0976B",
"{. c #777881",
"}. c #838383",
"|. c #8C8C8C",
" X c #898786",
".X c #968889",
"XX c #949494",
"oX c #9B9B9B",
"OX c #9B9695",
"+X c #A59796",
"@X c #AD928A",
"#X c #AEA19B",
"$X c #B29EA6",
"%X c #A3A3A3",
"&X c #ACACAC",
"*X c #AAA6A5",
"=X c #B7ADA9",
"-X c #B3B3B3",
";X c #BBBBBB",
":X c #C79D87",
">X c #D69A85",
",X c #CB958A",
"<X c #E09E88",
"1X c #CCA588",
"2X c #D6A889",
"3X c #D9A995",
"4X c #DCB595",
"5X c #D7B499",
"6X c #E3AC9C",
"7X c #E0A494",
"8X c #E4BD9C",
"9X c #E7BB98",
"0X c #E0A48F",
"qX c #D0B9AC",
"wX c #E3BCA4",
"eX c #E7B5A7",
"rX c #E3AFA2",
"tX c #EBC19D",
"yX c #EBC4A4",
"uX c #ECC8AE",
"iX c #F2CAA7",
"pX c #E8C9B7",
"aX c #F3D1B6",
"sX c #C4C4C4",
"dX c #CBCBCB",
"fX c #D3D3D3",
"gX c #DCDCDC",
"hX c #D0D0CF",
"jX c #EBD2C6",
"kX c #E6CFC3",
"lX c #E5E4E4",
"zX c #EBEBEB",
/* pixels */
"                                                                                                                                ",
"                                                                                                                                ",
"                                        oXOX%X%XoX-X;X                                                                          ",
"                                  ;XoXXXoXoX&X%X;X%X;XgXdX-XhX                                                                  ",
"                                -X|.Y oX%X&X-XhXsXfX-X;XgXzXgXsXfX                                                              ",
"                              -X}.oX%X&X%XsXhXgXgXgXgXdX-XzXlXzXgXhX                                                            ",
"                            ;XY }.}.XX%X-XfXfXfX*XsXdXgXgX;X&X-XdXlXdX                                                          ",
"                            %X XXXXX&X%XsXfXXX}.N U K N %X&X;XsXfXfX;XdX                                                        ",
"                          dX X XoX|.oX-XdX;XL N K Y U L XX-X&X;XsXfX-XdX                                                        ",
"                          oXU Y Y |.-XsXdXoXn n B K K J U oX|.Y %X-XsX;X                                                        ",
"                          Y }.}.XX}.}.&X&XU N F x.z.f.f.x.C.R z.Q S.oX;XgX                                                      ",
"                        ;X}.Y |.}.XX&X-XhXXXc 1.3.,.^ @. .] o. .#.] S.&XhX                                                      ",
"                        &X{.T.Y U %XXX&XsXXX>.&.#.$.o.o.o. .o.Q.m. .l.%X-X                                                      ",
"                        |.L XXXX|.Y &X-XdX-Xc *.Q.1X5X).e.*.~.].W.d.-.&X-XlX                                                    ",
"                      fX X}.U Y }.%XY sXhX;XC.W.1XQ.@X4X_.9.^.Q.C x.&.Z.sX&X                                                    ",
"                      ;XK {.oXoXL }.XX%X;XdX=X@XA G G ].].t.V.].c x.d.q.*XoX                                                    ",
"                      &X}.B L }.%X}.|.-XdXgXoXQ.x.% l 1X2Xi.5.'.].1XB.@.#XXXgX                                                  ",
"                    -XL U U |.}.}.oXoXoX*X%XY B.2X_.1X2X/.j.z Q.E.E.e. .T.-XsX                                                  ",
"                    }.L L B |.|.oX}.&X-XdXfXoX1.L.].2X_.W.5XyXtXE.].B.^ F. X;X                                                  ",
"                    U L  XU L K Y &XXX%X-XgX&X=.9.P.9XtXtX9X4X9XtX8X4XH.Z.oX&XdX                                                ",
"                  dXU K U U |.Y L U XX-XsX;X-X*.k.8XaXaXaXiXiXyXyX8X4X#Xz.;XoX;X                                                ",
"                  ;XL Y U U XXoX|.oXL ;XsXsX-Xm.pXaXpXaXyXyXtXtXtXtX8X].G.%X;X;XfX                                              ",
"                  XXB B }.|.oXL  X%X&X;X&X-XXX#XjXjXaXuXyXyXwXtXtX4X4X1XQ.hX%X-XdX                                              ",
"                %XU U K B Y }.%XXX}.-XdXfXgXXX5XkXjXjXpXuXwX8X8X9X4X5X].W.XX&X;X-XlX                                            ",
"                 XL L Y L K L  XXXoX-X;XsXfX|.:XpXkXkXpXwXwX5X8X1X]._.E.R.-XsX%X%X%X                                            ",
"              |.J K K N Y Y |.}. X{.&X;X-XsX%Xg.3XwXeXqX2X1X1X_._._.E.x.Y oXXXXX-X-X%X                                          ",
"              |.U U }.B B U U XX|.oX%X-X%X&X%XC.v.>X5X3X2X2X].'.E.~.x.V K |.%XsX%XOXoXj.                                        ",
"            oXU N N Y K U Y Y U }.|.-XhXqX&X-X;XZ #.f.E._.'./.B.v.A K R oXXX&XXXoX-X-X@Xk.                                      ",
"            Y L L L L L L U |.|.XXY -XsXsX&XoX%XI 5 9 a 0 > > > ; = B L L }.oX-XdX;X-X+X<.3X                                    ",
"          sX|.}.J }.Y |.Y K U  XoX;XdXdX;XhX-XoXA.d $.f a i 1 ; @ . j N B L U XX XOX|.C.) P.                                    ",
"          dXB }.L B B Y XXXX}.oX|.-X-XsX;XXXXX-XOX= z d i 1 < 4 < S j B L Y U oX-X-X%XD./ ..8.                                  ",
"          sXY U Y L L N K XX X%XoX&X&X%XXXsX-XXX}.$ $ @ a 9 9 u > R L r B K }.|.{.|.U D W ) <.U.                                ",
"          dX}.B U U |.XXK K K U oX&XoXoX}.XX|.T.V O o $ 9 9 0 0 l #Xl q l j U U oX|.&XA.7 / ` 4.(.                              ",
"          fXU n P U Y }.XXoX;X&X X}.*X XXXB j 1 @ O O $ e @ > > - j 1 6 6 k N K L P Y S.w ^ ~ ` k.                              ",
"          dXB Y B N B U U {.%X&XoX}.%XY j X @ ; 1 > o $ & @ y * % > 0 4 < < N B B L T XXC.[ { ( <.                              ",
"          fX XB N U |.Y |.U U }.XX|.&XT.: ; # , < 1 > o o $ + o > 1 9 4 6 7 e B N {.&XoXXXZ ! W ) b.                            ",
"          gXoXN N U Y Y  X|.%X|.oX-X-XY > > @ > < > 1 ; o O $ > 9 4 1 < 1 > < n B J L }.oXS.W { ~ 3.                            ",
"            ;XL U Y L N L L }.sX&X|.Y %Xk , @ > 3 3 1 > @ o $ > 3 4 0 < 5 5 7 t b P |.|.oX&X.X{ ) ) I.                          ",
"            &XN U K n L L }.U U }.%XXXoXT @ @ > 9 0 9 0 3 # o + > > 3 7 w 8 8 3 n A.L }.%X|.Y  X! ,.y.                          ",
"            hXU b N - B XXXX&XL oX%X}. XOX> > > < q 0 w < + & e 9 q w 7 W Q 8 8 k {.L K U L |.XXs.^ 4.P.                        ",
"              sXY N v B  X|.L B oX-X XXXoXN , > < 4 0 w ; o o e q 0 w @.^ E 8 8 E V n |. XU oXL q / 4.p.                        ",
"              fX;XL P n Y }.Y U %X-XoXoX*XoX9 0 0 q q q 2 + j * q q o.o.W W ! w 6 s.U b n v U B E w / 4.I.                      ",
"                qXf.P B U |.B }.sX;X;XfX-X|.c 4 9 0 0 O.0 . j * 9 q 6 Q w 5 8 E 6 w C.S e - m r [ W / _ p.                      ",
"                  -.f K U B B U |.XXoXoX%X&XI ! q < q w 4 o = o < q w w ] s w w E [ s ] @ @ > 6 w E | ,.p.                      ",
"                  @.[ h K K U &X}.dX*XoX;X-XF r 3 w q W 7 + = + 3 > 0 ! E ! q 2 W ^ { $., @ ; : 0 [ ) ` 7.'.                    ",
"                H.$.E 5 u S L &X|.sX%X|.;XS 3 0 f 1.z o.o.O = - 9 q i w q q ] 5 E / ^ d.T.> , : 4 7 E ( X.p.`.                  ",
"                w.[ [ 1 < 2 1 F G U Y ;X-XS 9 f w 2. .5 3 o & o 3 0 q w w 0 E ^ E { #.v.  l.> < < 5 6 E ~ 7.(.                  ",
"              /.2.@.w 4 ' 9 0 5 9 y M S K y 0 f z @.o.o.3 o & o 3 9 0 0 Q ! ] ] Q ] 0 z.    l.4 4 4 a q.U.^.>X                  ",
"              ).y.{ 4 0 f i 1 1 7 4 : ; < 9 0 f o.1.&.@.9 + & o , q 0 E q { / { [ ! q 4 u C.J.u 1 h k.U.(.[.`.                  ",
"              _.6.! ] ] [ E ! 1 4 0 9 < < 0 w o.d  .@.g l O o + 1 0 0 q w E 7 { E ] s 8 W { $.[ 1 [ n.e.%.U.L.[.`.              ",
"              H.@.] q s 4 0 q Q 1 0 w u < z w o.o.0 o.0 3 $ o + 4 s a a : 6 s { E E ^ W ~ | <.3.x g.g a +.w.w.L.^.'.            ",
"              q.] [ [ s @.0 ' q f f ;.x u 9 0 O.0 d q f 3 & & + > 9 s w > [ q E q W ) / ~ ) ` 6.H.W.< 1 O.i.n.e.K.I.(.          ",
"              1.] ] ] a f f q 0 w :.H.f.z r 0 d 3 9 q a r % & F > < 0 a > 2 > : 4 / ~ ) | | 6.| <.J.< g r.i.n.~.  r.M.          ",
"              ,.] 0 ' ] f 0 4 q 0 +.m.B.z $.o.f f o.w 9 G G G > > > < i @ 4 > > E W ( ) 6.` _ _ 5.7.o.+.*.o.q.L.                ",
"            H.%.#.a z $.o.w w w 1 q B.v.O.0 E ~  . .x.R.qXR.-.q a > < @ @ 1 , > 6 w / 5.| 6.8.8.4.<.5.z d O.-.V.                ",
"            G.E -.^ q w 0 w q 8 q d N.:.*. ./ ^ o. .z.T.W.;.#.1.2.&.1 # @ , X 1 1 %.7.7.7.y.p.8.7.8.5.o.z q.e.e.                ",
"            H.#.%./ f [ 7 5 4 1 q ;.N.c.o.^ W 0 h d.J.G.!.Y.w.2.6.a.0.; ; # X : < 4.7.7.| | _ 6.9.9.9.#.r.:.w.d.                ",
"            H.-.w.,.f a 1 < < 5 w :.b.:.Q w x z.J.J.D.S.S..XM.p.t.t.K.j.] > # , [ _ | j.M.>XY.0...5.9.w.-.1.>.                  ",
"                E.j.d.[ O.[ a a s.,Xn.;.] A F t C P H v v J.b.k.n.a.u.p.2.2.g r W m.6XrXrXeXrX<X/.-.#.&.=.f.                    ",
"                ).N.P.k.-.] [ g.    H.s.g.k = m P C.C.D.+XP.| 0.p.2.6.| 6.3.| %.[ >X6X7XY.7XrX>XL.V.@.B.                        ",
"                Y.N.P.c.w.$.] Z.    ,Xs.C.* * - .XD.p C.$Xp.| | | u.2.| ,.[ *.H.).rX7X<Xc.=.v.i.e.v.#.                          ",
"              3X/.N.b.r.q.q.-.j.      G.P % * v @Xg.F .X,Xu.| | w.{ | | %.%.`.6X>XrX`.U.e.d r z ;.*.m.                          ",
"              ,XY.M.e.w.:.q.j.%.      .Xv v v F h.F.S $XM.2.k.| 0.| [ 0.y.I.6X<X`.7X'.V.*.O.z z v.v.m.                          ",
"            >X/.Y.V.j.q.0.v.b.$.      C.t v H v v H {.$X{ 0.| 0.0.{ w.} k.>X<X<X`./.m.:.d O.i =.V.^.                            "
};
