/* XPM */
static char *_b6e8324dbed4fc9a5221ea6246ba8f2m7M0251lZTl92syT[] = {
/* columns rows colors chars-per-pixel */
"64 64 182 2 ",
"   c None",
".  c black",
"X  c #010101",
"o  c #020202",
"O  c gray1",
"+  c #0C0C0C",
"@  c gray5",
"#  c gray6",
"$  c #111111",
"%  c #131313",
"&  c gray8",
"*  c #161616",
"=  c gray9",
"-  c #191919",
";  c #1B1B1B",
":  c #1D1D1D",
">  c gray13",
",  c #222222",
"<  c gray14",
"1  c #272727",
"2  c gray16",
"3  c gray17",
"4  c #2C2C2C",
"5  c #2D2D2D",
"6  c #313131",
"7  c #323232",
"8  c gray20",
"9  c #343434",
"0  c #353535",
"q  c gray21",
"w  c #373737",
"e  c #3A3A3A",
"r  c gray23",
"t  c #4C1111",
"y  c #4E1010",
"u  c #511010",
"i  c #660B0B",
"p  c #610C0C",
"a  c #630C0C",
"s  c #6B0A0A",
"d  c #6E0808",
"f  c #6F0808",
"g  c #6E0909",
"h  c #720707",
"j  c #730707",
"k  c #750606",
"l  c #740707",
"z  c #750707",
"x  c #770606",
"c  c #7A0505",
"v  c #7B0505",
"b  c #780606",
"n  c #7D0404",
"m  c #7C0505",
"M  c #7E0404",
"N  c #730808",
"B  c gray26",
"V  c #464646",
"C  c #484848",
"Z  c #494949",
"A  c #505050",
"S  c #515151",
"D  c #585858",
"F  c gray35",
"G  c #5B5B5B",
"H  c #5D5D5D",
"J  c #5F5F5F",
"K  c gray38",
"L  c #626262",
"P  c #656565",
"I  c #676767",
"U  c #6F6F6F",
"Y  c #717171",
"T  c #727272",
"R  c #767676",
"E  c #777777",
"W  c gray47",
"Q  c gray48",
"!  c #7B7B7B",
"~  c #7E7E7E",
"^  c gray50",
"/  c #808080",
"(  c #818181",
")  c #868686",
"_  c #898989",
"`  c gray55",
"'  c #8E8E8E",
"]  c gray56",
"[  c gray57",
"{  c #929292",
"}  c #959595",
"|  c #979797",
" . c gray60",
".. c #9A9A9A",
"X. c #9B9B9B",
"o. c gray61",
"O. c #9D9D9D",
"+. c gray62",
"@. c #9F9F9F",
"#. c #A0A0A0",
"$. c gray63",
"%. c #A4A4A4",
"&. c #A5A5A5",
"*. c gray66",
"=. c #A9A9A9",
"-. c #AAAAAA",
";. c #ACACAC",
":. c gray68",
">. c #AEAEAE",
",. c gray69",
"<. c #B2B2B2",
"1. c gray70",
"2. c #B4B4B4",
"3. c gray71",
"4. c #B6B6B6",
"5. c #B7B7B7",
"6. c gray72",
"7. c #B9B9B9",
"8. c #BCBCBC",
"9. c gray74",
"0. c gray",
"q. c #C1C1C1",
"w. c gray76",
"e. c #C3C3C3",
"r. c #C5C5C5",
"t. c #C6C6C6",
"y. c gray78",
"u. c #C8C8C8",
"i. c gray79",
"p. c #CACACA",
"a. c #CBCBCB",
"s. c gray80",
"d. c #CDCDCD",
"f. c gray81",
"g. c #D0D0D0",
"h. c gray82",
"j. c #D2D2D2",
"k. c LightGray",
"l. c gray83",
"z. c #D5D5D5",
"x. c gray84",
"c. c #D7D7D7",
"v. c #D8D8D8",
"b. c gray85",
"n. c #DADADA",
"m. c gray86",
"M. c gainsboro",
"N. c #DDDDDD",
"B. c gray87",
"V. c #DFDFDF",
"C. c gray88",
"Z. c #E1E1E1",
"A. c #E2E2E2",
"S. c gray89",
"D. c #E4E4E4",
"F. c gray90",
"G. c #E6E6E6",
"H. c #E7E7E7",
"J. c gray91",
"K. c #E9E9E9",
"L. c #EAEAEA",
"P. c gray92",
"I. c #ECECEC",
"U. c gray93",
"Y. c #EEEEEE",
"T. c #EFEFEF",
"R. c gray94",
"E. c #F1F1F1",
"W. c gray95",
"Q. c #F3F3F3",
"!. c #F4F4F4",
"~. c gray96",
"^. c #F6F6F6",
"/. c gray97",
"(. c #F8F8F8",
"). c #F9F9F9",
"_. c gray98",
"`. c #FBFBFB",
"'. c gray99",
"]. c #FDFDFD",
"[. c #FEFEFE",
"{. c white",
/* pixels */
"                                                          M M M M M                                                             ",
"                                                    M M M M M M M M M t                                                         ",
"                                                  M M M M M M M M M M M M M M                                                   ",
"                                                v M M M M M M M M M M M M M M M                                                 ",
"                                                M M M M M M M M M M M M M M M M                                                 ",
"                                                M M M M M M M M M M M M M M M M u                                               ",
"                                    M M M M   z M M M M M M M M M M M M M M M M M   M M M M                                     ",
"                                M M M M M v   M M M M M M M M M M M M M M M M M N   M M M M M M                                 ",
"                                M M M M M     M M M M M M M M M M M M M M M M M M   M M M M M M                                 ",
"                              M M M M M M v   M M M M M M M M M M M M M M M M M t   M M M M M M                                 ",
"                              M M M M M M p   M M M M M M M M M M M M M M M M M M   M M M M M M                                 ",
"                              M M M M M M v   M M M M M M M M M M M M M M M M M M   M M M M M M                                 ",
"                                M M M M M M   M M M M M M M M M M M M M M M M M     M M M M M M                                 ",
"                              M M M M M M M     M M M M M M M M M M M M M M M     M M M M M M M                                 ",
"                                M M M M M M       M M M M M M M M M M M M M M     M M M M M M M                                 ",
"                                f M M M M M M     M M M M M M M M M M M M M M     M M M M M M                                   ",
"                                  M M M M M M f   M M M M M M M M M M M M M M   v M M M M M M                                   ",
"                                  M M M M M M M   M M M M M M M M M M M M M     M M M M M M                                     ",
"                                    M M M M M z     M M M M M M M M M M M       M M M M M M                                     ",
"                                  M M M M M M M M       M M M M M M M M M     N M M M M M M M M                                 ",
"                            M M M M M M M M M M M M     M M M M M M M M M   : M M M M M M M M M M M M                           ",
"                        M M M M M M M a M M   M M M     M M M M M M M M M   M M M M M M M N M M M M M M M                       ",
"                      M M M M M M M M                 z M M M M M M M M M M           M M M M M M M M M M                       ",
"                      s M M M M M M M         M M M M M M M M M M M M M M M M M           M M M M M M M M                       ",
"                      M M M M M M M     j M M M M M M M M M M M M M M M M M M M M M M N       M M M M M M                       ",
"                      M M M M M M   M M M M M M M M M M M 3 V M M M > 4 M M M M M M M M M M   M M M M M M                       ",
"                      M M M M M   M M M M M M M M M M M B     7 M M     9 M M M M M M M M M M M M M M M M                       ",
"                      M M M M     M M M M M M M M M M M r     L M 9       M M M M M M M M M M M   M M M M M                     ",
"                      M M v z     M M M M M M M M M M M M     Z M <     4 M M M M M M M M M M M   v M M                         ",
"                                M M M M M M M M M M M M M Z   7 M M     M M M M M M M M M M M M                                 ",
"                                M M M M M M M M M M M M M 4   M M M   r M M M M M M M M M M M M M                               ",
"                                M M M M M M M M M M M M M M L M M M 4 : M M M M M M M M M M M M M                               ",
"                                M M M M M M M M M M M M M M f M M M ; M M M M M M M M M M M M M M                               ",
"                                M M M M M M M M M M M M M M M M M M M M M M M M M M M M M M M M M                               ",
"                              M M M M M M M M M M M M M M M M M M M M M M M M M M M M M M M M M M                               ",
"                              M M M M M M M M M M M M M M M M M M M M M M M M M M M M M M M M M M                               ",
"                                M M M M M M M M M M M M M M M M M M M M M M M M M M M M M M M M M                               ",
"                                M i M M M M M M M M M M M M M M M M M M M M M M M M M M M M M M                                 ",
"                    h.                                      ' _ X.X.+.X.  M                                                     ",
"            h.A.E.(.{.(.I.N.m.m.V.D.I.E.Q.E.E.T.I.J.D.J.J.J.J.E.E.~.~.E.J.N.m.N.D.I.~.~.E.~.E.E.I.J.J.J.J.I.J.I.E.~.E.D.        ",
"        h.J.{.{.J.A.A.D.(.{.{.{.{.{.{.{.{.{.{.{.{.{.{.{.{.{.{.{.{.{.{.{.{.{.{.{.{.{.{.{.{.{.{.{.{.{.{.{.{.{.{.{.{.{.{.{.N.      ",
"      h.E.{.a.H . . . . 4 $.E.{.E.S S S S S S S S S S D {.0.S S S S S S I {.{.{.f.S S S S S S S S J.<.S S S S S S S D {.E.      ",
"      D.{.6.. . . . . . . . S E.I.. . . . . . . . . . 3 {.+.. . . . . . . E.{.{.a.. . . . . . . . J.*.. . . . . . . : {.(.      ",
"      ~.~.4 . . . . . . . . . 6.E.. . . . . . . . . . 3 {.~ . . . . . . . A.{.{.a.. . . . . . . . J.*.. . . . . . . : {.~.      ",
"    f.{.A.. . . . $.I.; . . . [ I.. . . . . . . . . . < {.S . . . . . . . a.{.{.a.. . . . . . . . D.*.. . . . . . . ; {.E.      ",
"    f.{.f.. . . . a.{.7 . . . / {.{.{.E.. . . . > {.{.{.(.. . . . * . . . 3.{.{.a.. . . . [ {.{.{.{.*.. . . . 0.{.{.(.{.D.      ",
"    f.{.f.. . . . 6.{.7 . . . W {.{.{.E.. . . . > {.{.{.J.. . . . W . . . | {.{.a.. . . . [ {.{.{.{.*.. . . . 0.{.{.{.{.c.      ",
"      {.m.. . . . Z A.(.{.{.{.{.{.{.{.E.. . . . > {.{.{.m.. . . . %.. . . Y {.{.a.. . . . [ {.{.{.{.*.. . . . 0.{.{.{.{.q.      ",
"      J.~.3 . . . . * *.~.{.{.{.{.{.{.~.. . . . > {.{.{.y.. . . * a.. . . 4 {.{.a.. . . . W c.h.N.{.*.. . . . +.h.c.D.{.y.      ",
"      N.{.;.. . . . . . D N.{.{.{.{.{.E.. . . . > {.{.{.;.. . . Z A.. . . . I.{.a.. . . . . . . R {.*.. . . . . . . *.{.m.      ",
"      a.{.(.X.. . . . . . # q.{.{.{.{.~.. . . . > {.{.{.[ . . . ) J.. . . . m.{.a.. . . . . . . R {.*.. . . . . . . *.{.A.      ",
"      h.{.{.{.a.r . . . . . . h.{.{.{.E.. . . . > {.{.{.Y . . . X.~.. . . . y.{.a.. . . . . . . R {.*.. . . . . . . *.{.D.      ",
"      D.{.{.{.{.I.) . . . . . Y {.{.{.~.. . . . > {.{.{.3 . . . ;.{.9 . . . ;.{.a.. . . . Y y.y.h.{.*.. . . . [ q.y.N.{.A.      ",
"      ~.~.y.y.a.a.A.3.. . . . # (.{.{.E.. . . . > {.{.E.. . . . X.a.Z . . . ' {.a.. . . . [ {.{.{.{.*.. . . . 0.{.{.{.A.        ",
"    f.{.D.. . . . <.{.R . . . . J.{.{.~.. . . . > {.{.A.. . . . . . . . . . I {.a.. . . . [ {.{.{.{.*.. . . . 0.{.{.c.          ",
"    a.{.J.. . . . <.{.+.. . . . D.{.{.E.. . . . > {.{.h.. . . . . . . . . . # (.a.. . . . [ {.{.{.{.*.. . . . 0.{.A.            ",
"      {.I.. . . . <.{.X.. . . . J.{.{.~.. . . . > {.{.6.. . . . . . . . . . . J.a.. . . . [ {.{.{.{.*.. . . . 0.{.c.            ",
"      I.{.9 . . . Y a.V . . . # ~.{.{.E.. . . . > {.{.%.. . . . 3.E.| . . . . c.a.. . . . [ {.{.{.{.*.. . . . 0.{.c.            ",
"      N.{.+.. . . . . . . . . ~ {.{.{.~.. . . . > {.{./ . . . . a.{.*.. . . . q.a.. . . . | {.{.{.{.*.. . . . 0.{.h.            ",
"        ~.~.W . . . . . . . H J.{.{.{.E.. . . . > {.{.D . . . . h.{.3.. . . . %.a.. . . . [ {.{.{.{.*.. . . . 0.{.c.            ",
"        h.(.{.a._ V % 9 / q.~.{.{.{.{.~.;.;.;.*.;.{.{.;.*.;.;.;.I.{.A.;.;.;.;.y.A.;.;.;.*.a.{.{.{.{.h.;.;.;.;.N.{.h.            ",
"          c.E.{.{.{.{.{.{.{.J.m.a.f.A.{.{.{.{.{.{.{.{.{.{.{.{.{.{.{.{.{.{.{.{.{.{.{.{.{.{.{.~.J.J.(.{.{.{.{.{.{.J.              ",
"              m.D.I.E.E.D.c.          f.A.A.A.A.m.c.c.m.A.A.A.N.c.c.c.N.A.D.D.D.D.J.D.A.A.c.      f.N.A.J.J.D.N.                ",
"                                                                                                                                "
};
