/* XPM */
static char *ca4d09541c61459ae2a68da61d96fd3e736wt4TK4XptOspP[] = {
/* columns rows colors chars-per-pixel */
"64 64 137 2 ",
"   c None",
".  c black",
"X  c #010101",
"o  c #020202",
"O  c #040404",
"+  c gray2",
"@  c gray3",
"#  c #0E0E0E",
"$  c #101010",
"%  c #202020",
"&  c #252525",
"*  c gray15",
"=  c #2A2A2A",
"-  c #323232",
";  c #343434",
":  c #3A3A3A",
">  c gray24",
",  c #3E3E3E",
"<  c #434343",
"1  c #464646",
"2  c #484848",
"3  c #4B4B4B",
"4  c #4C4C4C",
"5  c #515151",
"6  c #535353",
"7  c gray35",
"8  c #5B5B5B",
"9  c #5F5F5F",
"0  c #626262",
"q  c #646464",
"w  c #656565",
"e  c DimGray",
"r  c #6F6F6F",
"t  c #717171",
"y  c #727272",
"u  c gray45",
"i  c #747474",
"p  c #777777",
"a  c gray47",
"s  c #797979",
"d  c gray48",
"f  c #7B7B7B",
"g  c #7C7C7C",
"h  c #808080",
"j  c #818181",
"k  c #838383",
"l  c gray52",
"z  c #868686",
"x  c gray53",
"c  c gray56",
"v  c #909090",
"b  c gray57",
"n  c #939393",
"m  c gray58",
"M  c #989898",
"N  c #9B9B9B",
"B  c gray61",
"V  c #9D9D9D",
"C  c #A0A0A0",
"Z  c gray63",
"A  c #A2A2A2",
"S  c gray64",
"D  c #A4A4A4",
"F  c gray66",
"G  c #A9A9A9",
"H  c #ACACAC",
"J  c gray68",
"K  c #AEAEAE",
"L  c #AFAFAF",
"P  c #B1B1B1",
"I  c #B2B2B2",
"U  c #B4B4B4",
"Y  c gray71",
"T  c #B6B6B6",
"R  c #B7B7B7",
"E  c gray72",
"W  c #B9B9B9",
"Q  c #BBBBBB",
"!  c #BCBCBC",
"~  c gray",
"^  c gray75",
"/  c gray77",
"(  c #C5C5C5",
")  c #C6C6C6",
"_  c #C8C8C8",
"`  c gray79",
"'  c #CACACA",
"]  c #CBCBCB",
"[  c #CECECE",
"{  c gray81",
"}  c #D0D0D0",
"|  c gray82",
" . c #D2D2D2",
".. c LightGray",
"X. c gray83",
"o. c #D5D5D5",
"O. c gray84",
"+. c #D7D7D7",
"@. c #D8D8D8",
"#. c gray85",
"$. c #DADADA",
"%. c gray86",
"&. c gainsboro",
"*. c #DDDDDD",
"=. c gray87",
"-. c #DFDFDF",
";. c gray88",
":. c #E1E1E1",
">. c #E2E2E2",
",. c gray89",
"<. c #E4E4E4",
"1. c gray90",
"2. c #E6E6E6",
"3. c #E7E7E7",
"4. c gray91",
"5. c #E9E9E9",
"6. c #EAEAEA",
"7. c gray92",
"8. c #ECECEC",
"9. c gray93",
"0. c #EEEEEE",
"q. c #EFEFEF",
"w. c gray94",
"e. c #F1F1F1",
"r. c gray95",
"t. c #F3F3F3",
"y. c #F4F4F4",
"u. c gray96",
"i. c #F6F6F6",
"p. c gray97",
"a. c #F9F9F9",
"s. c gray98",
"d. c #FBFBFB",
"f. c gray99",
"g. c #FDFDFD",
"h. c #FEFEFE",
"j. c white",
/* pixels */
"                                                                                                                                ",
"                                                                                                                                ",
"                                                                                                                                ",
"                                                                                                                                ",
"                                                                                                                                ",
"                                                                                                                                ",
"                                                                                                                                ",
"                                                                                                                                ",
"                                                                                                                                ",
"                                                                                                                                ",
"                                                                                                                                ",
"                                                                                                                                ",
"                                                                                                                                ",
"                                                                                                                                ",
"                                                                                                                                ",
"                                                                                                                                ",
"                                                                                                                                ",
"                                                                                                                                ",
"                                                                                                                                ",
"                                                                                                                                ",
"              %.3.w.d.w.3.%.{ ' +.=.3.3.4.4.3.3.3.3.,.=.,.,.3.3.4.4.w.4.,.+. .+.=.3.4.4.9.4.4.3.3.3.3.,.3.,.3.3.3.4.4.=.        ",
"          =.p.j.j.w.9.p.j.j.j.j.j.j.j.j.j.j.j.j.j.j.j.j.j.j.j.j.j.j.j.j.j.j.j.j.j.j.j.j.j.j.j.j.j.j.j.j.j.j.j.j.j.j.j.j.,.      ",
"        3.j.3.m ; . . . 8 L p.j.j.l l l l l l l l l l l w.%.l l l l l l l d.j.j.3.l l l l l l l j =.{ l l l l l l l l p.p.      ",
"      =.j.%.* . . . . . . . 8 9.j.$ . . . . . . . . . . w.R . . . . . . . 4.j.j.=.. . . . . . . . +.! . . . . . . . . w.j.'     ",
"      9.j.q . . . . . . . . . G j.$ . . . . . . . . . . p.C . . . . . . . +.j.j.=.. . . . . . . . +.! . . . . . . . . w.j.'     ",
"      d.9.. . . . s ,.: . . . g j.$ . . . . . . . . . . w.j . . . . . . . ! j.j.=.. . . . . . . . +.! . . . . . . . . w.d.      ",
"    ' j.3.. . . . P j.p . . . 6 j.4.4.4.O . . . . %.4.4.j.4 . . . @ . . . C j.j.=.. . . . t 3.3.3.p.! . . . . V 4.4.4.j.4.      ",
"    ) j.,.. . . . G j.s . . . 1 j.j.j.j.. . . . . w.j.j.d.O . . . q . . . j j.j.=.. . . . s j.j.j.j.! . . . . L j.j.j.j.,.      ",
"      p.4.. . . . 1 3.4.4.4.4.4.j.j.j.j.. . . . . w.j.j.4.. . . . V . . . 3 j.j.=.. . . . s j.j.j.j.E . . . . L j.j.j.j. .      ",
"      4.d.> . . . . = E j.j.j.j.j.j.j.j.. . . . . w.j.j.%.. . . . ' . . . O p.j.=.. . . . t 4.4.9.j.! . . . . V 4.4.9.j.+.      ",
"      +.j.P . . . . . . e 4.j.j.j.j.j.j.. . . . . w.j.j./ . . . # 3.. . . . ,.j.=.. . . . . . . 3 j.! . . . . . . . c j.%.      ",
"      ) d.d.c . . . . . . $ ' j.j.j.j.j.O . . . . w.j.j.L . . . 1 p.. . . . { j.=.. . . . . . . 4 j.! . . . . . . . c j.3.      ",
"      ) j.j.j.! * . . . . . .  .j.j.j.j.O . . . . w.j.j.n . . . g j.; . . . R j.=.. . . . . . . 4 j.E . . . . . . . n j.3.      ",
"      =.j.j.j.j.4.p . . . . . 9 j.j.j.j.. . . . . 9.j.j.t . . . n j.0 . . . N j.=.. . . . 6 L L R j.! . . . . t L L ' j.3.      ",
"      9.d.%.%.%.=.3.L . . . . . 4.j.j.j.O . . . . w.j.j.= . . . n ,.r . . . p j.=.. . . . s j.j.j.j.! . . . . L j.j.j.9.        ",
"      j.w.. . . . C j.l . . . . =.j.j.j.. . . . . w.j.p.. . . . . . . . . . - j.=.. . . . s j.j.j.j.! . . . . G j.j.=.          ",
"      j.w.. . . . D j.P . . . . +.j.j.j.. . . . . w.j.,.. . . . . . . . . . . w.=.. . . . s j.j.j.j.! . . . . L j.9.            ",
"      p.d.. . . . D j.R . . . . %.j.j.j.O . . . . w.j.{ . . . . . . . . . . . =.=.. . . . s j.j.j.j.! . . . . L j.,.            ",
"      4.j.8 . . . e ,.p . . . . ,.j.j.j.. . . . . w.j.E . . . . n =.N . . . . ' =.. . . . s j.j.j.j.! . . . . G j.=.            ",
"      =.j.G . . . . . . . . . 1 d.j.j.j.. . . . . w.j.D . . . . R j.! . . . . L =.. . . . g j.j.j.j.! . . . . L j.,.            ",
"        w.p.r . . . . . . . *  .j.j.j.j.. . . . . w.j.j . . . . ) j.' . . . . m =.. . . . s j.j.j.j.! . . . . G j.=.            ",
"        +.d.d.E q . . . > V 4.j.j.j.j.j.l l x x x w.j.V x l l l %.j.=.l x l x C 3.l x x l D j.j.j.j. .l x x x ) j.%.            ",
"          +.p.j.j.p.9.9.j.j.p.,.+.+.3.j.j.j.j.j.j.j.j.j.j.j.j.j.j.j.j.j.j.j.j.j.j.j.j.j.j.j.j.w.9.j.j.j.j.j.j.j.p.              ",
"              %.4.p.j.d.9.=.          +.,.3.3.3.,.,.=.,.3.3.3.,.=.%.=.,.4.4.4.w.w.w.9.4.3.=.{     { ,.4.w.w.9.,. .              ",
"                                                                                                                                ",
"                                                                                                                                ",
"                                                                                                                                ",
"                                                                                                                                ",
"                                                                                                                                ",
"                                                                                                                                ",
"                                                                                                                                ",
"                                                                                                                                ",
"                                                                                                                                ",
"                                                                                                                                ",
"                                                                                                                                ",
"                                                                                                                                ",
"                                                                                                                                ",
"                                                                                                                                ",
"                                                                                                                                ",
"                                                                                                                                ",
"                                                                                                                                ",
"                                                                                                                                ",
"                                                                                                                                ",
"                                                                                                                                "
};
