/* XPM */
static char *_7c902b420b546bffbe9b526051586951m6tAGSy5qtX0bA7[] = {
/* columns rows colors chars-per-pixel */
"64 64 21 1 ",
"  c None",
". c #191919",
"X c gray12",
"o c gray15",
"O c #2A2A2A",
"+ c gray18",
"@ c gray20",
"# c gray22",
"$ c #3F3F3F",
"% c gray27",
"& c #4B4B4B",
"* c #515151",
"= c gray34",
"- c #626262",
"; c #6A6A6A",
": c #7B7B7B",
"> c #818181",
", c gray58",
"< c #A0A0A0",
"1 c #A9A9A9",
"2 c white",
/* pixels */
"                                                                ",
"                                                                ",
"                                                                ",
"                                                                ",
"                                                                ",
"                                                                ",
"                                                                ",
"                                                                ",
"                                                                ",
"                                                                ",
"                       $1222222222o     222222222@12222222222=  ",
"                      $2222222222O      22222222+< 2222222222=  ",
"                     $1222222222o       2222222+<  2222222222=  ",
"                    $2222222222o        222222O<   2222222222=  ",
"                   $1222222222o         22222+<    2222222222=  ",
"                  $2222222222o          2222O<     2222222222=  ",
"                 $1222222222X           222+<      2222222222=  ",
"                %2222222222X            22O<       2222222222=  ",
"               %1222222222X             2+<        2222222222=  ",
"              %2222222222X              O,         2222222222=  ",
"             %1222222222.               ,          2222222222=  ",
"            %2222222222.                          :222222222X   ",
"           %1222222222.                          :222222222X    ",
"          %2222222222.                          :222222222X     ",
"         %12222222221                          :222222222o      ",
"        %22222222221                          :222222222X       ",
"       %12222222221                          :222222222o        ",
"      %22222222221                          :222222222X         ",
"     %12222222222                          :222222222o          ",
"    %22222222222                          :222222222o           ",
"   %12222222222                          :222222222o            ",
"  &1222222222+                          :222222222.             ",
"  =2222222222ooooooooooooooooooooo+     2222222222+          :  ",
"  =2222222222222222222222222222222.     2222222222+         #=  ",
"  =2222222222222222222222222222222.     2222222222+        @2=  ",
"  =2222222222222222222222222222222.     2222222222+       @22=  ",
"  =2222222222222222222222222222222.     2222222222+      @222=  ",
"  =2222222222222222222222222222222.     2222222222+     @2222=  ",
"  =2222222222222222222222222222222.     2222222222+    +22222=  ",
"  =2222222222222222222222222222222.     2222222222+   +222222=  ",
"  ;*********************.222222222.     2222222222+  +2222222=  ",
"                        -222222222.     2222222222+ O22222222=  ",
"                        ;222222222.     2222222222++222222222=  ",
"                        ;222222222.                             ",
"                        ;222222222.                             ",
"                        ;222222222.                             ",
"                        ;222222222.                             ",
"                        ;222222222.                             ",
"                        ;222222222.                             ",
"                        ;222222222.                             ",
"                        ;222222222.                             ",
"                        >---------;                             ",
"                                                                ",
"                                                                ",
"                                                                ",
"                                                                ",
"                                                                ",
"                                                                ",
"                                                                ",
"                                                                ",
"                                                                ",
"                                                                ",
"                                                                ",
"                                                                "
};
